<?xml version="1.0" encoding="UTF-8" standalone="no"?>
<svg viewBox="0 0 138 202" version="1.1" xmlns="http://www.w3.org/2000/svg" xmlns:xlink="http://www.w3.org/1999/xlink" xmlns:sketch="http://www.bohemiancoding.com/sketch/ns">
    <!-- Generator: Sketch 3.3.3 (12081) - http://www.bohemiancoding.com/sketch -->
    <title>Imported Layers</title>
    <desc>Created with Sketch.</desc>
    <defs></defs>
    <g id="Page-1" stroke="none" stroke-width="1" fill="none" fill-rule="evenodd" sketch:type="MSPage">
        <g id="Logo-Guidelines" sketch:type="MSArtboardGroup" transform="translate(-445.000000, -2713.000000)">
            <g id="Group" sketch:type="MSLayerGroup" transform="translate(313.000000, 2336.140000)">
                <g id="Rectangle-87-+-Rectangle-87-Copy" sketch:type="MSShapeGroup">
                    <g id="Imported-Layers" transform="translate(131.885240, 377.007812)">
                        <path d="M95.0009347,59.6736947 L104.275854,65.030785 L109.927227,55.2378754 L100.652308,49.880785 L95.0009347,59.6736947" id="Fill-1" fill="#FCC65A"></path>
                        <path d="M97.3633785,47.9809782 L88.0884594,42.6232586 L82.4377152,52.4161682 L91.7120054,57.7738879 L97.3633785,47.9809782" id="Fill-2" fill="#FCC65A"></path>
                        <path d="M43.1152282,141.987121 L33.8403091,136.630031 L21.501635,158.011826 L30.7765541,163.368916 L43.1152282,141.987121" id="Fill-3" fill="#FCC65A"></path>
                        <path d="M34.0654835,165.268723 L43.3397736,170.626442 L55.6790767,149.244019 L46.4041576,143.886928 L34.0654835,165.268723" id="Fill-4" fill="#FCC65A"></path>
                        <path d="M13.0274057,172.696785 C11.4323159,175.459969 12.3820736,179.005981 15.1439189,180.601215 L26.9649435,187.42957 C29.7267888,189.024804 33.2710835,188.074586 34.8655443,185.311402 L40.4389241,175.653788 L18.6007855,163.039171 L13.0274057,172.696785" id="Fill-5" fill="#EE6E30"></path>
                        <path d="M113.957093,32.7076386 L105.62061,27.8923614 L92.2346866,38.3145545 L111.656918,49.5334206 L113.957093,32.7076386" id="Fill-6" fill="#FFFFFF"></path>
                        <path d="M105.62061,27.8923614 L92.2346866,38.3145545 L111.656918,49.5334206 L113.957093,32.7076386 L105.62061,27.8923614" id="Fill-7" fill="#FDE2AC"></path>
                        <path d="M5.17397834,34.0404611 C5.24127906,34.0404611 5.30857977,34.0366854 5.37650947,34.0297632 C6.41935606,33.9196386 7.1753884,32.9845234 7.06531713,31.9411713 C5.6023128,18.1013396 7.93079175,8.66838006 13.6224195,5.38100312 C20.9607134,1.14277882 33.255359,6.14684112 45.7072492,18.4436698 C46.4532179,19.18119 47.6551961,19.1736386 48.3923591,18.4254206 C49.1295221,17.6797196 49.1213453,16.4759003 48.3753767,15.7390093 C34.4447576,1.98224299 20.7424578,-3.12124611 11.722904,2.08985047 C4.55128948,6.23368224 1.63408652,16.6936324 3.28830036,32.3407664 C3.39145286,33.3161558 4.21541489,34.0404611 5.17397834,34.0404611" id="Fill-8" fill="#3E466E"></path>
                        <path d="M132.645307,179.16519 C131.596799,179.10352 130.691699,179.882573 130.618738,180.929072 C130.073413,188.757988 127.762545,193.903009 123.750291,196.22066 C115.232662,201.142287 99.5767544,193.363084 84.7913533,176.867676 C84.0913001,176.087364 82.8912089,176.02066 82.1100174,176.721682 C81.3288259,177.422075 81.2640411,178.624006 81.9640943,179.404947 C94.6380141,193.544947 107.845308,201.458187 117.920288,201.458187 C120.775851,201.458187 123.38108,200.821981 125.649177,199.511813 C130.823156,196.523346 133.769292,190.359514 134.407705,181.192741 C134.480666,180.146243 133.691298,179.238187 132.645307,179.16519" id="Fill-9" fill="#3E466E"></path>
                        <path d="M14.2639777,12.5472835 C14.3702751,12.4000312 14.4784595,12.2559252 14.5910466,12.1187414 C14.4784595,12.2559252 14.3702751,12.4000312 14.2639777,12.5472835" id="Fill-10" fill="#69C4C6"></path>
                        <path d="M12.6405839,16.0014206 C12.7034817,15.7899813 12.7701535,15.5842056 12.8399701,15.3822056 C12.7701535,15.5842056 12.7034817,15.7899813 12.6405839,16.0014206" id="Fill-11" fill="#69C4C6"></path>
                        <path d="M13.7387806,13.3634642 C13.8576575,13.1551713 13.9809373,12.9544299 14.110507,12.7618692 C13.9809373,12.9544299 13.8576575,13.1551713 13.7387806,13.3634642" id="Fill-12" fill="#69C4C6"></path>
                        <path d="M15.3250647,11.3403178 C15.4546343,11.2207539 15.5898647,11.1093707 15.7263531,11.001134 C15.5898647,11.1093707 15.4546343,11.2207539 15.3250647,11.3403178" id="Fill-13" fill="#69C4C6"></path>
                        <path d="M14.7784823,11.9003801 C14.8904405,11.7738941 15.0055436,11.6524424 15.1237915,11.5347664 C15.0055436,11.6524424 14.8904405,11.7738941 14.7784823,11.9003801" id="Fill-14" fill="#69C4C6"></path>
                        <path d="M118.190748,144.292816 C118.640468,145.579072 119.071319,146.847707 119.482042,148.098093 C119.071319,146.847707 118.640468,145.579072 118.190748,144.292816" id="Fill-15" fill="#69C4C6"></path>
                        <path d="M12.3764128,17.0019813 C12.429876,16.7716636 12.4864841,16.5451215 12.547495,16.3248723 C12.4864841,16.5451215 12.429876,16.7716636 12.3764128,17.0019813" id="Fill-16" fill="#69C4C6"></path>
                        <path d="M13.2865449,14.2463489 C13.4091958,13.975757 13.5387654,13.7152336 13.6771407,13.4660374 C13.5387654,13.7152336 13.4091958,13.975757 13.2865449,14.2463489" id="Fill-17" fill="#69C4C6"></path>
                        <path d="M12.9431226,15.0877009 C13.0242608,14.8687103 13.1110599,14.6579003 13.2003748,14.450866 C13.1110599,14.6579003 13.0242608,14.8687103 12.9431226,15.0877009" id="Fill-18" fill="#69C4C6"></path>
                        <path d="M118.382587,192.016417 C118.199554,192.045994 118.013376,192.067389 117.824683,192.085639 C118.013376,192.067389 118.199554,192.045994 118.382587,192.016417" id="Fill-19" fill="#69C4C6"></path>
                        <path d="M116.710762,192.129059 C116.436527,192.122137 116.155374,192.103259 115.870446,192.074312 C116.155374,192.102629 116.436527,192.122137 116.710762,192.129059" id="Fill-20" fill="#69C4C6"></path>
                        <path d="M117.58001,192.110181 C117.306404,192.12843 117.027767,192.136611 116.74284,192.130947 C117.027767,192.136611 117.306404,192.12843 117.58001,192.110181" id="Fill-21" fill="#69C4C6"></path>
                        <path d="M115.594954,192.039701 C115.385504,192.0139 115.173538,191.983695 114.958427,191.946567 C115.173538,191.983695 115.385504,192.0139 115.594954,192.039701" id="Fill-22" fill="#69C4C6"></path>
                        <path d="M119.158747,191.84714 C118.99647,191.89119 118.832307,191.929576 118.664998,191.962928 C118.832307,191.929576 118.99647,191.89119 119.158747,191.84714" id="Fill-23" fill="#69C4C6"></path>
                        <path d="M120.82554,191.166255 C120.608542,191.291483 120.383368,191.401607 120.153791,191.502293 C120.383368,191.401607 120.608542,191.291483 120.82554,191.166255" id="Fill-24" fill="#69C4C6"></path>
                        <path d="M119.482042,148.098093 C119.893394,149.34785 120.284618,150.579358 120.656345,151.791358 C120.284618,150.579358 119.893394,149.34785 119.482042,148.098093" id="Fill-25" fill="#69C4C6"></path>
                        <path d="M119.924843,191.59228 C119.763195,191.656467 119.60029,191.716249 119.432981,191.76848 C119.60029,191.716249 119.763195,191.656467 119.924843,191.59228" id="Fill-26" fill="#69C4C6"></path>
                        <path d="M11.9688347,27.8621558 C11.8751168,26.8408287 11.810332,25.8566293 11.7757382,24.9095576 C11.810332,25.8566293 11.8751168,26.8414579 11.9688347,27.8621558" id="Fill-27" fill="#69C4C6"></path>
                        <path d="M14.5948205,42.251352 C14.4413497,41.6459813 14.2941687,41.0462741 14.1526485,40.4534891 C14.2941687,41.0462741 14.4413497,41.6459813 14.5948205,42.251352" id="Fill-28" fill="#69C4C6"></path>
                        <path d="M12.1392879,18.1693022 C12.1896062,17.8773146 12.2443273,17.5909907 12.3040803,17.3122181 C12.2443273,17.5909907 12.1896062,17.8773146 12.1392879,18.1693022" id="Fill-29" fill="#69C4C6"></path>
                        <path d="M16.3263987,48.5139813 C15.6942752,46.3939252 15.1244205,44.3367975 14.6193507,42.348891 C15.1244205,44.3367975 15.6942752,46.3939252 16.3263987,48.5139813" id="Fill-30" fill="#69C4C6"></path>
                        <path d="M13.665819,38.3328037 C13.2563539,36.4701246 12.9104157,34.6785545 12.6298912,32.963757 C12.9104157,34.6779252 13.2563539,36.4701246 13.665819,38.3328037" id="Fill-31" fill="#69C4C6"></path>
                        <path d="M14.0960404,40.2149907 C13.962697,39.6517819 13.8350143,39.094866 13.7129924,38.544243 C13.8350143,39.094866 13.962697,39.6517819 14.0960404,40.2149907" id="Fill-32" fill="#69C4C6"></path>
                        <path d="M81.709987,160.262773 L81.7621922,160.234455 C82.9522198,159.583146 84.4391253,159.846816 85.3196954,160.87947 C88.1048129,164.14734 90.8622552,167.196218 93.5668634,169.979539 C108.924635,185.783994 116.491248,186.967047 117.93098,186.135763 C119.370083,185.30385 122.129413,178.156449 116.128327,156.947707 C114.139497,149.919869 111.456903,142.284143 108.181811,134.258891 L104.812373,136.205265 C104.972762,136.591016 105.133152,136.976137 105.289767,137.357483 C105.484751,137.833221 105.676589,138.305184 105.865283,138.773371 C106.24267,139.709115 106.60622,140.629757 106.955932,141.534037 C107.655356,143.343227 108.300059,145.086972 108.886267,146.759607 C111.099643,153.073838 112.489057,158.369259 112.928713,162.30228 C113.012996,163.057421 113.063315,163.764106 113.076523,164.416044 C113.085329,164.865981 113.077152,165.290748 113.051993,165.689713 C113.026834,166.088679 112.984063,166.461215 112.923052,166.807321 C112.682153,168.185452 112.160101,169.139445 111.338655,169.620218 L111.326704,169.628399 L111.316641,169.633433 L111.314754,169.634062 C111.216633,169.690069 111.11411,169.739782 111.008441,169.781944 L110.895225,169.818442 C110.819748,169.844243 110.744899,169.871302 110.665648,169.89081 L110.520354,169.91724 C110.448021,169.930455 110.375689,169.946187 110.300211,169.954368 L110.133532,169.963807 C110.06686,169.967583 110.002704,169.975134 109.934146,169.975134 L109.911503,169.973875 L109.756145,169.966324 C109.673749,169.962548 109.591981,169.958773 109.507069,169.949963 C109.449203,169.94367 109.38945,169.932972 109.330326,169.924162 C109.24793,169.912206 109.166163,169.900879 109.081251,169.883888 C109.018353,169.871302 108.953568,169.854941 108.889412,169.839838 C108.805129,169.819701 108.720846,169.800193 108.634676,169.77628 C108.566746,169.757402 108.498188,169.735377 108.429629,169.713352 C108.34283,169.686293 108.256031,169.658604 108.167345,169.62714 C108.095641,169.601969 108.02268,169.57428 107.950347,169.545963 C107.861032,169.511352 107.770459,169.476112 107.679257,169.437097 C107.604409,169.405632 107.528302,169.37228 107.452196,169.338299 C107.359107,169.296137 107.265389,169.252717 107.170414,169.207408 C107.093049,169.169651 107.013798,169.130636 106.934547,169.090361 C106.838313,169.041277 106.740821,168.990305 106.6427,168.936816 C106.561562,168.893396 106.481053,168.849346 106.398657,168.803408 C106.298649,168.746773 106.196755,168.68762 106.094231,168.626579 C106.011206,168.577495 105.928181,168.528411 105.843898,168.47681 C105.738858,168.412623 105.632561,168.34466 105.525634,168.276069 C105.441351,168.22195 105.357068,168.16909 105.270898,168.112455 C105.160827,168.039458 105.04824,167.962056 104.935652,167.885283 C104.85074,167.82676 104.766457,167.770125 104.680287,167.709713 C104.562668,167.626648 104.443162,167.539178 104.323656,167.452336 C104.239373,167.391296 104.156348,167.332143 104.071436,167.269215 C103.941866,167.172305 103.809152,167.070361 103.677066,166.968417 C103.599702,166.909265 103.524224,166.853259 103.44686,166.792218 C103.289615,166.668879 103.129226,166.539875 102.968207,166.409614 L102.804044,166.278093 C102.585788,166.100006 102.365646,165.915626 102.141729,165.724953 L102.037319,165.634336 C101.848625,165.472611 101.658045,165.307109 101.464948,165.137202 C101.387584,165.067981 101.307704,164.995614 101.22971,164.925134 C101.078126,164.789838 100.926543,164.653913 100.773072,164.513583 C100.681241,164.429888 100.588152,164.342417 100.495692,164.256835 C100.352285,164.124056 100.208878,163.991277 100.063584,163.854093 C99.9642052,163.76033 99.8635686,163.663421 99.763561,163.567769 C99.6239278,163.434361 99.4836655,163.300324 99.3421453,163.162511 C99.235848,163.059308 99.1282926,162.95296 99.0213662,162.847869 C98.882362,162.711315 98.7439867,162.57476 98.6037244,162.435059 C98.4936532,162.324935 98.3823239,162.212922 98.2709947,162.10028 C98.1313615,161.95995 97.9917282,161.818361 97.850837,161.673626 C97.7376208,161.557838 97.6231467,161.440162 97.5093016,161.321857 C97.3677814,161.175863 97.2256322,161.027981 97.082854,160.878212 C96.967122,160.757389 96.8513899,160.635308 96.7356578,160.512598 C96.5909927,160.359053 96.4450697,160.204249 96.2991467,160.047558 C96.1821566,159.92296 96.0651666,159.797103 95.9481766,159.669988 C95.7997376,159.51015 95.6506697,159.347794 95.5016017,159.184181 C95.3846117,159.055807 95.2676217,158.928062 95.1493737,158.797801 C94.9977898,158.630411 94.844319,158.459875 94.6908483,158.28871 C94.5726003,158.155931 94.4537233,158.023782 94.3342174,157.889745 C94.1782307,157.713545 94.020986,157.534829 93.8631124,157.356112 C93.7467513,157.223333 93.6303903,157.091184 93.5127713,156.956517 C93.3492368,156.76962 93.1850734,156.578947 93.020281,156.388903 C92.9051779,156.254866 92.7900748,156.122717 92.6737137,155.986791 C92.5026315,155.787308 92.3290334,155.582791 92.1560643,155.378903 C92.046622,155.2499 91.9371797,155.122156 91.8271085,154.991265 C91.6302382,154.757801 91.4314809,154.519302 91.2320947,154.280804 C91.1446666,154.175713 91.0578676,154.07314 90.9704396,153.967421 C90.6873992,153.626349 90.4024718,153.280872 90.1162866,152.930361 L90.0999331,152.910854 C89.8062001,152.551533 89.5105801,152.186548 89.2137022,151.817788 C89.1375958,151.723396 89.0602314,151.626486 88.984125,151.531464 C88.7639825,151.256467 88.543211,150.98147 88.3211815,150.701439 C88.2167711,150.569919 88.1117316,150.435882 88.0073212,150.303732 C87.8123378,150.057053 87.6179834,149.811003 87.421742,149.560548 C87.3034941,149.408891 87.1839881,149.255346 87.0651112,149.10243 C86.8814494,148.866449 86.6977876,148.630467 86.5128679,148.39134 C86.3851852,148.225838 86.2562446,148.058449 86.127933,147.891059 C85.9700593,147.685283 85.8121857,147.480137 85.6530541,147.272474 L72.8395011,154.674106 C75.5598338,158.204386 78.2524913,161.532667 80.8992335,164.63881 C79.7287042,163.253128 80.118042,161.133701 81.709987,160.262773" id="Fill-33" fill="#9FD9DF"></path>
                        <path d="M28.8273493,36.7583364 C28.7443241,36.0164112 28.6952638,35.3223115 28.6814263,34.6798131 C28.6757655,34.4457196 28.6751365,34.217919 28.6795393,33.9976698 C28.7235678,31.6623988 29.2902776,30.0992586 30.4293579,29.4416573 L30.4551461,29.4290717 C30.5494928,29.3762118 30.6463556,29.327757 30.7476211,29.2874829 L30.8753038,29.2465794 C30.9463784,29.2226667 31.016195,29.1974953 31.0897855,29.1792461 L31.2495461,29.1502991 C31.3174758,29.1377134 31.3847765,29.1232399 31.4552221,29.1150592 C31.5124592,29.1087664 31.5734701,29.1087664 31.6332231,29.1049907 C31.6961209,29.1018442 31.7577608,29.0942928 31.8225456,29.0942928 L31.8439309,29.0955514 L32.0068364,29.1037321 C32.0867167,29.1081371 32.165968,29.1106542 32.2483642,29.1200935 C32.3074882,29.125757 32.3691281,29.1370841 32.42951,29.1458941 C32.5100193,29.1578505 32.5911575,29.1691776 32.6741827,29.1861682 C32.7383385,29.1981246 32.8043813,29.2151153 32.8697951,29.2308474 C32.9528203,29.2497259 33.0358454,29.2698629 33.1213865,29.2937757 C33.1893162,29.3126542 33.2585039,29.3346791 33.3276915,29.356704 C33.4144906,29.3837632 33.5012896,29.4114517 33.5893466,29.4429159 C33.6604212,29.4674579 33.7333828,29.4957757 33.8057153,29.5234642 C33.8956592,29.5580748 33.9862322,29.5939439 34.0780631,29.6323302 C34.1522825,29.6637944 34.227131,29.6971464 34.3032374,29.7311277 C34.3969552,29.7732897 34.491931,29.8173396 34.5875358,29.8632773 C34.6642712,29.900405 34.7416355,29.9387913 34.8189999,29.9784361 C34.9171206,30.0281495 35.0164992,30.0803801 35.1165068,30.1344984 C35.1957581,30.1766604 35.2750094,30.220081 35.3548897,30.2653894 C35.4580422,30.3232835 35.5618237,30.3836947 35.6662341,30.4453645 C35.7473724,30.49319 35.8278816,30.5410156 35.9096489,30.5913583 C36.0178332,30.657433 36.1272755,30.7266542 36.2373467,30.7977632 C36.318485,30.8493645 36.3996232,30.9009657 36.4813905,30.9550841 C36.5964936,31.0312274 36.7134836,31.1111464 36.8304736,31.1910654 C36.9109829,31.2464424 36.9908632,31.3005607 37.0726304,31.3578255 C37.1959102,31.4446667 37.321077,31.5359128 37.4468727,31.6271589 C37.524866,31.6837944 37.6022304,31.7391713 37.6814817,31.7976947 C37.8185991,31.8996386 37.9582323,32.0072461 38.0978656,32.1148536 C38.1676822,32.168972 38.2362409,32.2199439 38.3066865,32.2753209 C38.4765107,32.4074704 38.6488509,32.5465421 38.82182,32.6868723 L38.9495027,32.7894455 C39.1702742,32.9694206 39.3935616,33.1556885 39.6193649,33.3488785 L39.6199939,33.3488785 C39.8426523,33.5389221 40.0684557,33.7352586 40.296146,33.9366293 C40.3590438,33.9926355 40.4231996,34.0517882 40.4867265,34.1084237 C40.6534058,34.2569346 40.8200852,34.4060748 40.9892804,34.5608785 C41.0697897,34.6345047 41.1515569,34.7112773 41.2326952,34.786162 C41.3874239,34.9296386 41.5421526,35.0731153 41.6993973,35.2216262 C41.7880833,35.3053209 41.8773983,35.3915327 41.9667132,35.476486 C42.1182971,35.6218505 42.2705099,35.767215 42.4246097,35.9169844 C42.5189565,36.0082305 42.6139323,36.1026231 42.708908,36.195757 C42.8598629,36.3442679 43.0120757,36.4940374 43.1655465,36.6469533 C43.2636672,36.7451215 43.3636748,36.8458069 43.4624245,36.9458629 C43.6140083,37.0987788 43.7655922,37.252324 43.919063,37.4090156 C44.0215865,37.5141059 44.124739,37.6204548 44.2278915,37.727433 C44.3813623,37.8860125 44.535462,38.0458505 44.6901908,38.2082056 C44.7939723,38.3177009 44.8990117,38.4278255 45.0040511,38.5385794 C45.1594088,38.7034517 45.3160245,38.8708411 45.4738982,39.0394891 C45.5801956,39.1533894 45.6864929,39.2672897 45.7934193,39.3830779 C45.9531799,39.5555016 46.1135695,39.7310717 46.275217,39.907271 C46.3808854,40.0236885 46.4871828,40.1394766 46.5934802,40.2571526 C46.7589015,40.4396449 46.9255809,40.6246542 47.0922602,40.8109221 C47.1966707,40.9279688 47.3017101,41.0443863 47.4067495,41.1626916 C47.5772028,41.3546231 47.7495429,41.5503302 47.9218831,41.7460374 C48.0256645,41.8643427 48.129446,41.9820187 48.2338565,42.1015826 C48.4137444,42.3079875 48.5948902,42.5175389 48.776665,42.7277196 C48.8741567,42.8409907 48.9710194,42.9530031 49.0691401,43.0669034 C49.2666394,43.2972212 49.4653967,43.5313146 49.6647829,43.7666667 C49.749066,43.8660935 49.8327202,43.9636324 49.9170033,44.0643178 C50.1446936,44.3336511 50.3736418,44.6080187 50.603848,44.8836449 C50.661714,44.9541246 50.7195801,45.0220872 50.7780751,45.092567 C51.3617673,45.7961059 51.9536362,46.5197819 52.5517949,47.2629657 L52.6757037,47.4177695 C52.931069,47.7355576 53.1870633,48.0552336 53.4449446,48.3799439 C53.5260828,48.4825171 53.608479,48.5876075 53.6902462,48.69081 C53.9078728,48.9658069 54.1254994,49.2420623 54.344384,49.5220935 C54.4475365,49.6529844 54.550689,49.7870218 54.6538415,49.9191713 C54.8538567,50.1752897 55.0538719,50.4326667 55.2551451,50.69319 C55.3683613,50.8391838 55.4815774,50.9876947 55.5947936,51.134947 C55.787261,51.3847726 55.9790995,51.6352274 56.172196,51.8881994 L56.2407546,51.9775576 L59.6120802,50.0299252 C54.255698,43.1071776 48.9395705,36.9049595 43.8064758,31.6214953 C28.4480752,15.8176698 20.8820911,14.6346168 19.4423589,15.4659003 C18.0026268,16.2978131 15.2432975,23.445215 21.2450117,44.6539564 C22.2237025,48.1131277 23.3797653,51.7271028 24.6855249,55.456866 C25.1427924,56.7632586 24.6163373,58.2112399 23.417504,58.9034517 L23.3596379,58.9368037 C21.8035448,59.8354206 19.8096825,59.0941246 19.2152976,57.3975763 C18.6825527,55.8753396 18.1762249,54.3782741 17.6975722,52.9070093 C19.4926772,58.424567 21.6746041,64.3121433 24.2163069,70.4753458 L37.0311178,63.0730841 C32.3817076,51.9442056 29.4953246,42.7610717 28.8273493,36.7583364" id="Fill-34" fill="#9FD9DF"></path>
                        <path d="M17.6761869,52.8403053 C17.4497546,52.1430592 17.2296121,51.4527352 17.0151303,50.7674455 C17.2296121,51.4527352 17.4497546,52.1430592 17.6761869,52.8403053" id="Fill-35" fill="#69C4C6"></path>
                        <path d="M16.96607,50.6094953 C16.7509593,49.9191713 16.5415094,49.2345109 16.3396073,48.5567726 C16.5415094,49.2345109 16.7509593,49.9191713 16.96607,50.6094953" id="Fill-36" fill="#69C4C6"></path>
                        <path d="M11.7474342,23.216785 C11.7474342,22.8914455 11.751837,22.5711402 11.7606427,22.2558692 C11.751837,22.5711402 11.7474342,22.8914455 11.7474342,23.216785" id="Fill-37" fill="#69C4C6"></path>
                        <path d="M11.7713354,21.8896262 C11.783286,21.5768723 11.7990104,21.2710405 11.8185088,20.9689844 C11.7990104,21.2710405 11.783286,21.5768723 11.7713354,21.8896262" id="Fill-38" fill="#69C4C6"></path>
                        <path d="M11.8386361,20.6511963 C11.8656822,20.288729 11.899018,19.9344424 11.9380147,19.5883364 C11.899018,19.9344424 11.8656822,20.288729 11.8386361,20.6511963" id="Fill-39" fill="#69C4C6"></path>
                        <path d="M11.9480784,19.4838754 C11.9933648,19.0956075 12.046199,18.7180374 12.106581,18.3505358 C12.046199,18.7180374 11.9933648,19.0956075 11.9480784,19.4838754" id="Fill-40" fill="#69C4C6"></path>
                        <path d="M11.7700774,24.7100748 C11.7574978,24.3218069 11.7493211,23.9392025 11.7468052,23.5635202 C11.7493211,23.9392025 11.7574978,24.3218069 11.7700774,24.7100748" id="Fill-41" fill="#69C4C6"></path>
                        <path d="M12.1292242,29.3938318 C12.077648,28.9482991 12.0317325,28.5096885 11.9902199,28.0767414 C12.0317325,28.5096885 12.077648,28.9482991 12.1292242,29.3938318" id="Fill-42" fill="#69C4C6"></path>
                        <path d="M12.3367872,31.0186417 C12.2764052,30.5812897 12.2204261,30.148972 12.1688499,29.722947 C12.2204261,30.148972 12.2764052,30.5812897 12.3367872,31.0186417" id="Fill-43" fill="#69C4C6"></path>
                        <path d="M114.635761,191.885526 C114.425053,191.843364 114.21183,191.796168 113.99609,191.743938 C114.21183,191.796168 114.425053,191.843364 114.635761,191.885526" id="Fill-44" fill="#69C4C6"></path>
                        <path d="M12.605361,32.808324 C12.5248518,32.3099315 12.4500033,31.8184611 12.3808157,31.3332835 C12.4500033,31.8184611 12.5248518,32.3099315 12.605361,32.808324" id="Fill-45" fill="#69C4C6"></path>
                        <path d="M88.6784414,173.269433 C88.2293506,172.800617 87.777744,172.324249 87.3236214,171.84096 C87.777744,172.324249 88.2293506,172.800617 88.6784414,173.269433" id="Fill-46" fill="#69C4C6"></path>
                        <path d="M87.1927938,171.701259 C85.6650047,170.068268 84.1145723,168.349695 82.5452706,166.549944 C84.1145723,168.349695 85.6650047,170.068268 87.1927938,171.701259" id="Fill-47" fill="#69C4C6"></path>
                        <path d="M97.5363477,181.73896 C97.1476388,181.403551 96.7570431,181.061221 96.3633025,180.71134 C96.7570431,181.061221 97.1476388,181.403551 97.5363477,181.73896" id="Fill-48" fill="#69C4C6"></path>
                        <path d="M96.1054212,180.481022 C95.7135675,180.130511 95.3191979,179.772449 94.9223124,179.406835 C95.3191979,179.772449 95.7135675,180.130511 96.1054212,180.481022" id="Fill-49" fill="#69C4C6"></path>
                        <path d="M94.7160074,179.217421 C93.2907418,177.899072 91.8365432,176.490106 90.3565564,174.99304 C91.8365432,176.490106 93.2907418,177.899072 94.7160074,179.217421" id="Fill-50" fill="#69C4C6"></path>
                        <path d="M90.2188101,174.85334 C89.7760091,174.404031 89.3306922,173.947171 88.8834884,173.482131 C89.3306922,173.947171 89.7760091,174.404031 90.2188101,174.85334" id="Fill-51" fill="#69C4C6"></path>
                        <path d="M82.4377152,166.425975 C81.9596915,165.876611 81.4797808,165.319065 80.9979831,164.755227 C81.4797808,165.319065 81.9596915,165.876611 82.4377152,166.425975" id="Fill-52" fill="#69C4C6"></path>
                        <path d="M31.6395128,13.6630031 C25.3245672,9.65698442 20.0990126,8.38331464 16.5408804,10.4385545 C16.3226248,10.5644112 16.1138039,10.7053707 15.9112728,10.8545109 C16.1138039,10.7053707 16.3226248,10.5650405 16.5408804,10.4385545 C20.0990126,8.38331464 25.3245672,9.65698442 31.6395128,13.6630031" id="Fill-53" fill="#69C4C6"></path>
                        <path d="M113.674682,191.664019 C113.433783,191.600461 113.189739,191.528093 112.94318,191.451321 C113.189739,191.528093 113.433783,191.600461 113.674682,191.664019" id="Fill-54" fill="#69C4C6"></path>
                        <path d="M117.501388,142.350218 C116.222674,138.798542 114.799296,135.117863 113.242573,131.335869 C114.798667,135.117863 116.222674,138.798542 117.501388,142.350218" id="Fill-55" fill="#69C4C6"></path>
                        <path d="M112.694733,191.375807 C112.356343,191.265682 112.014178,191.146118 111.665724,191.01271 C112.014178,191.146118 112.356343,191.265682 112.694733,191.375807" id="Fill-56" fill="#69C4C6"></path>
                        <path d="M109.201386,189.913352 C108.935328,189.779944 108.667383,189.640243 108.396293,189.495508 C108.667383,189.640243 108.935328,189.779944 109.201386,189.913352" id="Fill-57" fill="#69C4C6"></path>
                        <path d="M110.339208,190.453907 C110.073779,190.334972 109.806463,190.211003 109.536631,190.079483 C109.806463,190.211003 110.073779,190.334972 110.339208,190.453907" id="Fill-58" fill="#69C4C6"></path>
                        <path d="M111.65566,191.008305 C111.315383,190.878044 110.970074,190.733938 110.620361,190.581651 C110.970074,190.733938 111.315383,190.878044 111.65566,191.008305" id="Fill-59" fill="#69C4C6"></path>
                        <path d="M108.077401,189.324343 C107.766056,189.153807 107.451567,188.97509 107.133933,188.789452 C107.451567,188.97509 107.766056,189.153807 108.077401,189.324343" id="Fill-60" fill="#69C4C6"></path>
                        <path d="M100.447261,184.150374 C99.557256,183.446206 98.6515268,182.697358 97.7307021,181.907607 C98.6515268,182.697358 99.557256,183.446206 100.447261,184.150374" id="Fill-61" fill="#69C4C6"></path>
                        <path d="M102.984561,186.06843 C102.656234,185.831819 102.325391,185.588287 101.992661,185.33909 C102.325391,185.588287 102.656234,185.831819 102.984561,186.06843" id="Fill-62" fill="#69C4C6"></path>
                        <path d="M106.941465,188.678069 C106.155871,188.213657 105.352036,187.703308 104.531219,187.149539 C105.352036,187.702679 106.155871,188.213657 106.941465,188.678069" id="Fill-63" fill="#69C4C6"></path>
                        <path d="M101.717798,185.132685 C101.320912,184.832517 100.921511,184.523539 100.517706,184.205121 C100.921511,184.523539 101.320912,184.832517 101.717798,185.132685" id="Fill-64" fill="#69C4C6"></path>
                        <path d="M104.277112,186.975857 C103.952559,186.75372 103.624861,186.526548 103.295276,186.291196 C103.624861,186.526548 103.952559,186.754349 104.277112,186.975857" id="Fill-65" fill="#69C4C6"></path>
                        <path d="M80.9979831,164.755227 C81.4797808,165.319065 81.9596915,165.876611 82.4377152,166.425975 L82.5452706,166.549944 C84.1145723,168.349695 85.6650047,170.068268 87.1927938,171.701259 L87.3236214,171.84096 C87.777744,172.324249 88.2293506,172.800617 88.6784414,173.269433 C88.7470001,173.340542 88.8155587,173.411651 88.8834884,173.482131 C89.3306922,173.947171 89.7760091,174.404031 90.2188101,174.85334 L90.3565564,174.99304 C91.8365432,176.490106 93.2907418,177.899072 94.7160074,179.217421 C94.7845661,179.280978 94.8531247,179.343277 94.9223124,179.406835 C95.3191979,179.772449 95.7135675,180.130511 96.1054212,180.481022 C96.1915913,180.558424 96.2777614,180.635196 96.3633025,180.71134 C96.7570431,181.061221 97.1476388,181.403551 97.5363477,181.73896 C97.6011325,181.794966 97.6665462,181.851601 97.7307021,181.907607 C98.6515268,182.697358 99.557256,183.446206 100.447261,184.150374 L100.517706,184.205121 C100.921511,184.523539 101.320912,184.832517 101.717798,185.132685 C101.809629,185.202536 101.90083,185.269869 101.992661,185.33909 C102.325391,185.588287 102.656234,185.831819 102.984561,186.06843 C103.088342,186.143315 103.191495,186.21757 103.295276,186.291196 C103.624861,186.526548 103.952559,186.75372 104.277112,186.975857 C104.362024,187.033751 104.446936,187.092903 104.531219,187.149539 C105.352036,187.703308 106.155871,188.213657 106.941465,188.678069 C107.00625,188.716455 107.069777,188.751695 107.133933,188.789452 C107.451567,188.97509 107.766056,189.153807 108.077401,189.324343 C108.184327,189.382866 108.290625,189.438872 108.396293,189.495508 C108.667383,189.640243 108.935328,189.779944 109.201386,189.913352 C109.313344,189.969358 109.425302,190.025364 109.536631,190.079483 C109.806463,190.211003 110.073779,190.334972 110.339208,190.453907 C110.432926,190.496069 110.527273,190.540748 110.620361,190.581651 C110.970074,190.733938 111.315383,190.878044 111.65566,191.008305 L111.665724,191.01271 C112.014178,191.146118 112.356343,191.265682 112.694733,191.375807 C112.778387,191.403495 112.860154,191.42552 112.94318,191.451321 C113.189739,191.528093 113.433783,191.600461 113.674682,191.664019 C113.782866,191.692336 113.889163,191.718137 113.99609,191.743938 C114.21183,191.796168 114.425053,191.843364 114.635761,191.885526 C114.743316,191.906922 114.851501,191.927688 114.958427,191.946567 C115.173538,191.983695 115.385504,192.0139 115.594954,192.039701 C115.686784,192.051028 115.779873,192.065502 115.870446,192.074312 C116.155374,192.103259 116.436527,192.122137 116.710762,192.129059 L116.74284,192.130947 C117.027767,192.136611 117.306404,192.12843 117.58001,192.110181 C117.663035,192.104517 117.742916,192.09319 117.824683,192.085639 C118.013376,192.067389 118.199554,192.045994 118.382587,192.016417 C118.477563,192.000685 118.571281,191.981807 118.664998,191.962928 C118.832307,191.929576 118.99647,191.89119 119.158747,191.84714 C119.250577,191.821969 119.343037,191.796798 119.432981,191.76848 C119.60029,191.716249 119.763195,191.656467 119.924843,191.59228 C120.000949,191.562075 120.078313,191.535016 120.153791,191.502293 C120.383368,191.401607 120.608542,191.291483 120.82554,191.166255 L120.83183,191.163109 C126.745487,187.747358 127.004626,175.745034 122.644546,158.816679 C122.062741,156.559439 121.399797,154.215358 120.656345,151.791358 C120.284618,150.579358 119.893394,149.34785 119.482042,148.098093 C119.071319,146.847707 118.640468,145.579072 118.190748,144.292816 C117.965574,143.649688 117.735997,143.001526 117.501388,142.350218 C116.222674,138.798542 114.798667,135.117863 113.242573,131.335869 L116.261671,129.592125 C117.062361,129.128972 117.556109,128.274405 117.556109,127.348729 L117.556109,74.1975576 C117.556109,73.2718816 117.062361,72.4166854 116.261671,71.954162 L109.300764,67.9336698 L116.766112,54.9974891 L122.350813,14.1500685 C122.536362,12.7939626 121.852662,11.6681745 120.852586,11.0904922 C119.851252,10.5121807 118.532284,10.4838629 117.45107,11.325215 L84.7630493,36.7759564 L77.4121759,49.5139128 L70.2531409,45.378891 C69.4524511,44.9157383 68.4655836,44.9157383 67.6642648,45.378891 L64.6715844,47.1075327 C52.5297806,31.3213271 40.9100291,19.5449159 31.6395128,13.6630031 C25.3245672,9.65698442 20.0990126,8.38331464 16.5408804,10.4385545 C16.3226248,10.5650405 16.1138039,10.7053707 15.9112728,10.8545109 C15.847746,10.9010779 15.788622,10.9526791 15.7263531,11.001134 C15.5898647,11.1093707 15.4546343,11.2207539 15.3250647,11.3403178 C15.256506,11.4032461 15.1904633,11.4693209 15.1237915,11.5347664 C15.0055436,11.6524424 14.8904405,11.7738941 14.7784823,11.9003801 C14.7149554,11.9721184 14.6520576,12.0438567 14.5910466,12.1187414 C14.4784595,12.2559252 14.3702751,12.4000312 14.2639777,12.5472835 C14.2130305,12.6190218 14.1601963,12.688243 14.110507,12.7618692 C13.9809373,12.9544299 13.8576575,13.1551713 13.7387806,13.3634642 L13.6771407,13.4660374 C13.5387654,13.7152336 13.4091958,13.975757 13.2865449,14.2463489 C13.2563539,14.3124237 13.2293079,14.3829034 13.2003748,14.450866 C13.1110599,14.6579003 13.0242608,14.8687103 12.9431226,15.0877009 C12.9072708,15.1839813 12.8739349,15.2840374 12.8399701,15.3822056 C12.7701535,15.5842056 12.7034817,15.7899813 12.6405839,16.0014206 C12.6085059,16.1077695 12.577686,16.2160062 12.547495,16.3248723 C12.4864841,16.5451215 12.429876,16.7716636 12.3764128,17.0019813 C12.3525116,17.1051838 12.3273525,17.2071277 12.3040803,17.3122181 C12.2443273,17.5909907 12.1896062,17.8773146 12.1392879,18.1693022 C12.1285952,18.230972 12.1160157,18.288866 12.106581,18.3505358 C12.046199,18.7180374 11.9933648,19.0956075 11.9480784,19.4838754 L11.9380147,19.5883364 C11.899018,19.9344424 11.8656822,20.288729 11.8386361,20.6511963 C11.8310883,20.7556573 11.8254275,20.8626355 11.8185088,20.9689844 C11.7990104,21.2710405 11.783286,21.5768723 11.7713354,21.8896262 C11.7669325,22.0110779 11.7637876,22.1331589 11.7606427,22.2558692 C11.751837,22.5711402 11.7474342,22.8914455 11.7474342,23.216785 C11.7468052,23.3325732 11.7461762,23.4471028 11.7468052,23.5635202 C11.7493211,23.9392025 11.7574978,24.3218069 11.7700774,24.7100748 C11.7725933,24.7774081 11.7732223,24.8422243 11.7757382,24.9095576 C11.810332,25.8566293 11.8751168,26.8408287 11.9688347,27.8621558 C11.9757534,27.9326355 11.9833012,28.0056324 11.9902199,28.0767414 C12.0317325,28.5096885 12.077648,28.9482991 12.1292242,29.3938318 C12.1424328,29.5033271 12.1556413,29.6134517 12.1688499,29.722947 C12.2204261,30.148972 12.2764052,30.5812897 12.3367872,31.0186417 C12.3518827,31.1231028 12.3657202,31.2275639 12.3808157,31.3332835 C12.4500033,31.8184611 12.5248518,32.3099315 12.605361,32.808324 L12.6298912,32.963757 C12.9104157,34.6785545 13.2563539,36.4701246 13.665819,38.3328037 C13.6815435,38.4026542 13.697268,38.4737632 13.7129924,38.544243 C13.8350143,39.094866 13.962697,39.6517819 14.0960404,40.2149907 C14.1149098,40.2942804 14.1337792,40.3735701 14.1526485,40.4534891 C14.2941687,41.0462741 14.4413497,41.6459813 14.5948205,42.251352 L14.6193507,42.348891 C15.1244205,44.3367975 15.6942752,46.3939252 16.3263987,48.5139813 L16.3396073,48.5567726 C16.5415094,49.2345109 16.7509593,49.9191713 16.96607,50.6094953 L17.0151303,50.7674455 C17.2296121,51.4527352 17.4497546,52.1430592 17.6761869,52.8403053 L17.6975722,52.9070093 C18.1768539,54.3795327 18.6831817,55.8778567 19.2165556,57.401352 C19.8103114,59.0966417 21.8041738,59.8347913 23.3596379,58.9368037 L23.417504,58.9034517 C24.6163373,58.2112399 25.1427924,56.7638879 24.6855249,55.456866 C23.3797653,51.7271028 22.2237025,48.1131277 21.2450117,44.6539564 C15.2432975,23.445215 18.0026268,16.2978131 19.4423589,15.4659003 C20.8820911,14.6346168 28.4480752,15.8176698 43.8064758,31.6214953 C48.9395705,36.9049595 54.255698,43.1071776 59.6120802,50.0299252 L56.2407546,51.9775576 L56.2401257,51.9775576 L56.172196,51.8881994 C55.9790995,51.6352274 55.787261,51.3847726 55.5947936,51.134947 C55.4815774,50.9876947 55.3677323,50.8391838 55.2551451,50.69319 C55.0538719,50.4326667 54.8538567,50.1752897 54.6538415,49.9191713 C54.550689,49.7870218 54.4475365,49.6529844 54.344384,49.5220935 C54.1254994,49.2420623 53.9078728,48.9658069 53.6902462,48.69081 C53.608479,48.5876075 53.5260828,48.4825171 53.4449446,48.3799439 C53.1870633,48.0552336 52.931069,47.7355576 52.6757037,47.4177695 L52.5517949,47.2629657 C51.9536362,46.5197819 51.3617673,45.7961059 50.7780751,45.092567 C50.7195801,45.0220872 50.661714,44.9541246 50.603848,44.8836449 C50.3736418,44.6080187 50.1446936,44.3336511 49.9170033,44.0643178 C49.8327202,43.9636324 49.749066,43.8660935 49.6647829,43.7666667 C49.4653967,43.5313146 49.2666394,43.2972212 49.0691401,43.0669034 C48.9710194,42.9530031 48.8741567,42.8409907 48.776665,42.7277196 C48.5948902,42.5175389 48.4137444,42.3079875 48.2338565,42.1015826 C48.129446,41.9820187 48.0256645,41.8643427 47.9218831,41.7460374 C47.7495429,41.5503302 47.5772028,41.3546231 47.4067495,41.1626916 C47.3017101,41.0443863 47.1966707,40.9279688 47.0922602,40.8109221 C46.9255809,40.6246542 46.7589015,40.4396449 46.5934802,40.2571526 C46.4871828,40.1394766 46.3808854,40.0236885 46.275217,39.907271 C46.1135695,39.7310717 45.9531799,39.5555016 45.7934193,39.3830779 C45.6864929,39.2672897 45.5801956,39.1533894 45.4738982,39.0394891 C45.3160245,38.8708411 45.1594088,38.7034517 45.0040511,38.5385794 C44.8990117,38.4278255 44.7939723,38.3177009 44.6901908,38.2082056 C44.535462,38.0458505 44.3813623,37.8860125 44.2278915,37.727433 C44.124739,37.6204548 44.0215865,37.5141059 43.919063,37.4090156 C43.7655922,37.252324 43.6140083,37.0987788 43.4624245,36.9458629 C43.3636748,36.8458069 43.2636672,36.7451215 43.1655465,36.6469533 C43.0120757,36.4940374 42.8598629,36.3442679 42.708908,36.195757 C42.6139323,36.1026231 42.5189565,36.0082305 42.4246097,35.9169844 C42.2705099,35.767215 42.1182971,35.6218505 41.9667132,35.476486 C41.8773983,35.3915327 41.7880833,35.3053209 41.6993973,35.2216262 C41.5421526,35.0731153 41.3874239,34.9296386 41.2326952,34.786162 C41.1515569,34.7112773 41.0697897,34.6345047 40.9892804,34.5608785 C40.8200852,34.4060748 40.6534058,34.2569346 40.4867265,34.1084237 C40.4231996,34.0517882 40.3590438,33.9926355 40.296146,33.9366293 C40.0684557,33.7352586 39.8426523,33.5389221 39.6199939,33.3488785 L39.6193649,33.3488785 C39.3935616,33.1556885 39.1702742,32.9694206 38.9495027,32.7894455 L38.82182,32.6868723 C38.6488509,32.5465421 38.4765107,32.4074704 38.3066865,32.2753209 C38.2362409,32.2199439 38.1676822,32.168972 38.0978656,32.1148536 C37.9582323,32.0072461 37.8185991,31.8996386 37.6814817,31.7976947 C37.6022304,31.7391713 37.524866,31.6837944 37.4468727,31.6271589 C37.321077,31.5359128 37.1959102,31.4446667 37.0726304,31.3578255 C36.9908632,31.3005607 36.9109829,31.2464424 36.8304736,31.1910654 C36.7134836,31.1111464 36.5964936,31.0312274 36.4813905,30.9550841 C36.3996232,30.9009657 36.318485,30.8493645 36.2373467,30.7977632 C36.1272755,30.7266542 36.0178332,30.657433 35.9096489,30.5913583 C35.8278816,30.5410156 35.7473724,30.49319 35.6662341,30.4453645 C35.5618237,30.3836947 35.4580422,30.3232835 35.3548897,30.2653894 C35.2750094,30.220081 35.1957581,30.1766604 35.1165068,30.1344984 C35.0164992,30.0803801 34.9171206,30.0281495 34.8189999,29.9784361 C34.7416355,29.9387913 34.6642712,29.900405 34.5875358,29.8632773 C34.491931,29.8173396 34.3969552,29.7732897 34.3032374,29.7311277 C34.227131,29.6971464 34.1522825,29.6637944 34.0780631,29.6323302 C33.9862322,29.5939439 33.8956592,29.5580748 33.8057153,29.5234642 C33.7333828,29.4957757 33.6604212,29.4674579 33.5893466,29.4429159 C33.5012896,29.4114517 33.4144906,29.3837632 33.3276915,29.356704 C33.2585039,29.3346791 33.1893162,29.3126542 33.1213865,29.2937757 C33.0358454,29.2698629 32.9528203,29.2497259 32.8697951,29.2308474 C32.8043813,29.2151153 32.7383385,29.1981246 32.6741827,29.1861682 C32.5911575,29.1691776 32.5100193,29.1578505 32.42951,29.1458941 C32.3691281,29.1370841 32.3074882,29.125757 32.2483642,29.1200935 C32.165968,29.1106542 32.0867167,29.1081371 32.0068364,29.1037321 L31.8439309,29.0955514 L31.8225456,29.0942928 C31.7577608,29.0942928 31.6961209,29.1018442 31.6332231,29.1049907 C31.5734701,29.1087664 31.5124592,29.1087664 31.4552221,29.1150592 C31.3847765,29.1232399 31.3174758,29.1377134 31.2495461,29.1502991 L31.0897855,29.1792461 C31.016195,29.1974953 30.9463784,29.2226667 30.8753038,29.2465794 L30.7476211,29.2874829 C30.6463556,29.327757 30.5494928,29.3762118 30.4551461,29.4290717 L30.4350187,29.4385109 L30.4293579,29.4416573 L30.4281,29.4422866 C29.2902776,30.1005171 28.7235678,31.6636573 28.6795393,33.9976698 C28.6751365,34.217919 28.6757655,34.4457196 28.6814263,34.6798131 C28.6952638,35.3223115 28.7443241,36.0164112 28.8273493,36.7583364 C29.4953246,42.7610717 32.3817076,51.9442056 37.0311178,63.0730841 L21.6563638,71.954162 C20.855674,72.4166854 20.3619257,73.2718816 20.3619257,74.1975576 L20.3619257,127.348729 C20.3619257,128.274405 20.855674,129.128972 21.6563638,129.592125 L28.8153987,133.727146 L8.00186634,169.79453 C4.80288094,175.338517 6.7011385,182.428025 12.2430693,185.628561 L24.063465,192.456916 C29.6053959,195.658081 36.6914693,193.758274 39.8904547,188.214287 L60.7039871,152.146903 L67.6642648,156.167396 C68.4655836,156.630548 69.4524511,156.630548 70.2531409,156.167396 L85.6530541,147.272474 C85.8121857,147.480137 85.9700593,147.685283 86.127933,147.891059 C86.2562446,148.058449 86.3851852,148.225838 86.5128679,148.39134 C86.6977876,148.630467 86.8814494,148.866449 87.0651112,149.10243 C87.1839881,149.255346 87.3034941,149.40952 87.421742,149.560548 C87.6179834,149.811003 87.8123378,150.057053 88.0073212,150.303732 C88.1117316,150.435882 88.2167711,150.569919 88.3211815,150.701439 C88.543211,150.98147 88.7639825,151.256467 88.984125,151.531464 C89.0602314,151.626486 89.1375958,151.723396 89.2137022,151.817788 C89.5105801,152.186548 89.8062001,152.551533 90.0999331,152.910854 L90.1162866,152.930361 C90.4024718,153.280872 90.6873992,153.626349 90.9704396,153.967421 C91.0578676,154.07314 91.1446666,154.175713 91.2320947,154.280804 C91.4314809,154.519302 91.6302382,154.757801 91.8271085,154.991265 C91.9371797,155.122156 92.046622,155.2499 92.1560643,155.378903 C92.3290334,155.582791 92.5026315,155.787308 92.6737137,155.986791 C92.7900748,156.122717 92.9051779,156.254866 93.020281,156.388903 C93.1850734,156.578947 93.3492368,156.76962 93.5127713,156.956517 C93.6297613,157.091184 93.7467513,157.223333 93.8631124,157.356112 C94.020986,157.534829 94.1782307,157.713545 94.3342174,157.889745 C94.4537233,158.023782 94.5726003,158.155931 94.6908483,158.28871 C94.844319,158.459875 94.9977898,158.630411 95.1493737,158.797801 C95.2676217,158.928062 95.3846117,159.056436 95.5016017,159.184181 C95.6506697,159.347794 95.7997376,159.51015 95.9481766,159.669988 C96.0651666,159.797103 96.1821566,159.92296 96.2991467,160.047558 C96.4450697,160.204249 96.5909927,160.359053 96.7356578,160.512598 C96.8513899,160.635308 96.967122,160.757389 97.082854,160.878212 C97.2256322,161.027981 97.3677814,161.175863 97.5093016,161.321857 C97.6231467,161.440162 97.7376208,161.557838 97.850837,161.673626 C97.9917282,161.818361 98.1313615,161.95995 98.2709947,162.10028 C98.3823239,162.212922 98.4936532,162.324935 98.6037244,162.435059 C98.7439867,162.57476 98.882362,162.711315 99.0213662,162.847869 C99.1282926,162.95296 99.235848,163.059308 99.3421453,163.162511 C99.4836655,163.300324 99.6239278,163.434361 99.763561,163.567769 C99.8635686,163.663421 99.9642052,163.76033 100.063584,163.854093 C100.208878,163.991277 100.352285,164.124056 100.495692,164.256835 C100.588152,164.342417 100.681241,164.429888 100.773072,164.513583 C100.926543,164.653913 101.078126,164.789838 101.22971,164.925134 C101.307704,164.995614 101.387584,165.067981 101.464948,165.137202 C101.658045,165.307109 101.848625,165.472611 102.037319,165.634336 L102.141729,165.724953 C102.365646,165.915626 102.585788,166.100006 102.804044,166.278093 L102.968207,166.409614 C103.129226,166.539875 103.289615,166.668879 103.44686,166.792218 C103.524224,166.853259 103.599702,166.909265 103.677066,166.968417 C103.809152,167.070361 103.941866,167.172305 104.071436,167.269215 C104.156348,167.332143 104.239373,167.391296 104.323656,167.452336 C104.443162,167.539178 104.562668,167.626648 104.680287,167.709713 C104.766457,167.770125 104.85074,167.82676 104.935652,167.885283 C105.04824,167.962056 105.160827,168.039458 105.270898,168.112455 C105.357068,168.16909 105.441351,168.22195 105.525634,168.276069 C105.632561,168.34466 105.738858,168.412623 105.843898,168.47681 C105.928181,168.528411 106.011206,168.577495 106.094231,168.626579 C106.196755,168.68762 106.298649,168.746773 106.398657,168.803408 C106.481053,168.849346 106.561562,168.893396 106.6427,168.936816 C106.740821,168.990305 106.838313,169.041277 106.934547,169.090361 C107.013798,169.130636 107.093049,169.169651 107.170414,169.207408 C107.265389,169.252717 107.359107,169.296137 107.452196,169.338299 C107.528302,169.37228 107.604409,169.405632 107.679257,169.437097 C107.770459,169.476112 107.861032,169.511352 107.950347,169.545963 C108.02268,169.57428 108.095641,169.601969 108.167345,169.62714 C108.256031,169.658604 108.34283,169.686293 108.429629,169.713352 C108.498188,169.735377 108.566746,169.757402 108.634676,169.77628 C108.720846,169.800193 108.805129,169.819701 108.889412,169.839838 C108.953568,169.854941 109.018353,169.871302 109.081251,169.883888 C109.166163,169.900879 109.24793,169.912206 109.330326,169.924162 C109.38945,169.932972 109.449203,169.94367 109.507069,169.949963 C109.591981,169.958773 109.673749,169.962548 109.756145,169.966324 L109.911503,169.973875 L109.934146,169.975134 C110.002704,169.975134 110.06686,169.967583 110.133532,169.963807 L110.300211,169.954368 C110.375689,169.946187 110.448021,169.930455 110.520354,169.91724 L110.665648,169.89081 C110.744899,169.871302 110.819748,169.844243 110.895225,169.818442 L111.008441,169.781944 C111.11411,169.739782 111.216633,169.690069 111.314754,169.634062 L111.316012,169.633433 L111.326704,169.628399 L111.338655,169.620218 L111.343058,169.617701 C112.161359,169.13567 112.682782,168.182935 112.923052,166.807321 C112.984063,166.461215 113.026834,166.088679 113.051993,165.689713 C113.077152,165.290748 113.085329,164.865981 113.076523,164.416044 C113.063315,163.764106 113.012996,163.057421 112.928713,162.30228 C112.489057,158.369259 111.099643,153.073838 108.886267,146.759607 C108.300059,145.086972 107.655356,143.343227 106.955932,141.534037 C106.60622,140.629757 106.24267,139.709115 105.865283,138.773371 C105.676589,138.305184 105.484751,137.833221 105.289767,137.357483 C105.133152,136.976137 104.972762,136.591016 104.812373,136.205265 L108.181811,134.258891 C111.456903,142.284143 114.139497,149.919869 116.128327,156.947707 C122.129413,178.156449 119.370083,185.30385 117.93098,186.135763 C116.491248,186.967047 108.924635,185.783994 93.5668634,169.979539 C90.8477887,167.181115 88.0758798,164.114617 85.2744089,160.82724 C84.4271747,159.832343 83.0019091,159.558604 81.854652,160.184112 C80.2406928,161.063221 79.7878282,163.173838 80.8992335,164.63881 L80.9067812,164.648879 L80.9979831,164.755227 L80.9979831,164.755227 Z M104.275854,65.030785 L95.0009347,59.6736947 L100.652308,49.880785 L109.927227,55.2378754 L104.275854,65.030785 L104.275854,65.030785 Z M105.62061,27.8923614 L113.957093,32.7076386 L111.656918,49.5334206 L92.2346866,38.3151838 L105.62061,27.8923614 L105.62061,27.8923614 Z M88.0884594,42.6232586 L97.3633785,47.9809782 L91.7120054,57.7738879 L82.4377152,52.4161682 L88.0884594,42.6232586 L88.0884594,42.6232586 Z M38.3840509,56.2717882 C35.40395,48.5794268 33.8824507,43.2626106 33.137111,39.6335327 C37.259437,43.6043115 42.2591883,49.5044735 47.7646384,56.8733832 L40.3496091,61.1569159 C39.6577326,59.4905732 38.998563,57.8575826 38.3840509,56.2717882 L38.3840509,56.2717882 Z M33.8403091,136.630031 L43.1152282,141.987121 L30.7765541,163.368916 L21.501635,158.011826 L33.8403091,136.630031 L33.8403091,136.630031 Z M34.8655443,185.311402 C33.2710835,188.074586 29.7267888,189.024804 26.9649435,187.42957 L15.1439189,180.601215 C12.3820736,179.005981 11.4323159,175.459969 13.0274057,172.696785 L18.6007855,163.039171 L40.4389241,175.653788 L34.8655443,185.311402 L34.8655443,185.311402 Z M43.3397736,170.626442 L34.0654835,165.268723 L46.4041576,143.886928 L55.6790767,149.244019 L43.3397736,170.626442 L43.3397736,170.626442 Z M88.9728034,145.355047 L96.4337481,141.045084 C100.094404,149.520274 102.747436,156.842617 104.190313,162.477221 C101.399534,160.043153 97.4596123,156.011963 92.0799579,149.320791 C91.0597545,148.051526 90.0213108,146.72248 88.9728034,145.355047 L88.9728034,145.355047 Z M68.9593318,143.307358 L32.1414378,122.040093 L32.1414378,112.08357 L80.5495214,84.1219875 L68.9593318,77.4270405 L32.1414378,98.6943053 L32.1414378,79.5061931 L68.9593318,58.2389283 L105.776597,79.5061931 L105.776597,89.4627165 L57.3685133,117.424299 L68.9587029,124.119246 L105.776597,102.852611 L105.776597,122.040093 L68.9593318,143.307358 L68.9593318,143.307358 Z" id="Fill-66" fill="#3E466E"></path>
                        <path d="M33.8057153,29.5234642 C33.7333828,29.4957757 33.6604212,29.4674579 33.5893466,29.4429159 C33.6604212,29.4674579 33.7333828,29.4957757 33.8057153,29.5234642" id="Fill-67" fill="#FFFFFF"></path>
                        <path d="M34.8189999,29.9784361 C34.7416355,29.9387913 34.6642712,29.900405 34.5875358,29.8632773 C34.6642712,29.900405 34.7416355,29.9387913 34.8189999,29.9784361" id="Fill-68" fill="#FFFFFF"></path>
                        <path d="M32.8697951,29.2308474 C32.8043813,29.2151153 32.7383385,29.1981246 32.6741827,29.1861682 C32.7383385,29.1981246 32.8043813,29.2151153 32.8697951,29.2308474" id="Fill-69" fill="#FFFFFF"></path>
                        <path d="M34.3032374,29.7311277 C34.227131,29.6971464 34.1522825,29.6637944 34.0780631,29.6323302 C34.1522825,29.6637944 34.227131,29.6971464 34.3032374,29.7311277" id="Fill-70" fill="#FFFFFF"></path>
                        <path d="M35.3548897,30.2653894 C35.2750094,30.220081 35.1957581,30.1766604 35.1165068,30.1344984 C35.1957581,30.1766604 35.2750094,30.220081 35.3548897,30.2653894" id="Fill-71" fill="#FFFFFF"></path>
                        <path d="M33.3276915,29.356704 C33.2585039,29.3346791 33.1893162,29.3126542 33.1213865,29.2937757 C33.1893162,29.3126542 33.2585039,29.3346791 33.3276915,29.356704" id="Fill-72" fill="#FFFFFF"></path>
                        <path d="M54.6538415,49.9191713 C54.550689,49.7870218 54.4475365,49.6529844 54.344384,49.5220935 C54.4475365,49.6529844 54.550689,49.7870218 54.6538415,49.9191713" id="Fill-73" fill="#FFFFFF"></path>
                        <path d="M48.2338565,42.1015826 C48.129446,41.9820187 48.0256645,41.8643427 47.9218831,41.7460374 C48.0256645,41.8643427 48.129446,41.9820187 48.2338565,42.1015826" id="Fill-74" fill="#FFFFFF"></path>
                        <path d="M35.9096489,30.5913583 C35.8278816,30.5410156 35.7473724,30.49319 35.6662341,30.4453645 C35.7473724,30.49319 35.8278816,30.5410156 35.9096489,30.5913583" id="Fill-75" fill="#FFFFFF"></path>
                        <path d="M47.4067495,41.1626916 C47.3017101,41.0443863 47.1966707,40.9279688 47.0922602,40.8109221 C47.1966707,40.9279688 47.3017101,41.0443863 47.4067495,41.1626916" id="Fill-76" fill="#FFFFFF"></path>
                        <path d="M49.9170033,44.0643178 C49.8327202,43.9636324 49.749066,43.8660935 49.6647829,43.7666667 C49.749066,43.8660935 49.8327202,43.9636324 49.9170033,44.0643178" id="Fill-77" fill="#FFFFFF"></path>
                        <path d="M46.5934802,40.2571526 C46.4871828,40.1394766 46.3808854,40.0236885 46.275217,39.907271 C46.3808854,40.0236885 46.4871828,40.1394766 46.5934802,40.2571526" id="Fill-78" fill="#FFFFFF"></path>
                        <path d="M52.6757037,47.4177695 L52.5517949,47.2629657 L52.6757037,47.4177695" id="Fill-79" fill="#FFFFFF"></path>
                        <path d="M50.7780751,45.092567 C50.7195801,45.0220872 50.661714,44.9541246 50.603848,44.8836449 C50.661714,44.9541246 50.7195801,45.0220872 50.7780751,45.092567" id="Fill-80" fill="#FFFFFF"></path>
                        <path d="M55.5947936,51.134947 C55.4815774,50.9876947 55.3683613,50.8391838 55.2551451,50.69319 C55.3677323,50.8391838 55.4815774,50.9876947 55.5947936,51.134947" id="Fill-81" fill="#FFFFFF"></path>
                        <path d="M56.2401257,51.9775576 L56.2407546,51.9775576 L56.172196,51.8881994 L56.2401257,51.9775576" id="Fill-82" fill="#FFFFFF"></path>
                        <path d="M53.6902462,48.69081 C53.608479,48.5876075 53.5260828,48.4825171 53.4449446,48.3799439 C53.5260828,48.4825171 53.608479,48.5876075 53.6902462,48.69081" id="Fill-83" fill="#FFFFFF"></path>
                        <path d="M45.7934193,39.3830779 C45.6864929,39.2672897 45.5801956,39.1533894 45.4738982,39.0394891 C45.5801956,39.1533894 45.6864929,39.2672897 45.7934193,39.3830779" id="Fill-84" fill="#FFFFFF"></path>
                        <path d="M49.0691401,43.0669034 C48.9710194,42.9530031 48.8741567,42.8409907 48.776665,42.7277196 C48.8741567,42.8409907 48.9710194,42.9530031 49.0691401,43.0669034" id="Fill-85" fill="#FFFFFF"></path>
                        <path d="M45.0040511,38.5385794 C44.8990117,38.4278255 44.7939723,38.3177009 44.6901908,38.2082056 C44.7939723,38.3177009 44.8990117,38.4278255 45.0040511,38.5385794" id="Fill-86" fill="#FFFFFF"></path>
                        <path d="M37.6814817,31.7976947 C37.6022304,31.7391713 37.524866,31.6837944 37.4468727,31.6271589 C37.524866,31.6837944 37.6022304,31.7391713 37.6814817,31.7976947" id="Fill-87" fill="#FFFFFF"></path>
                        <path d="M36.4813905,30.9550841 C36.3996232,30.9009657 36.318485,30.8493645 36.2373467,30.7977632 C36.318485,30.8493645 36.3996232,30.9009657 36.4813905,30.9550841" id="Fill-88" fill="#FFFFFF"></path>
                        <path d="M38.9495027,32.7894455 L38.82182,32.6868723 L38.9495027,32.7894455" id="Fill-89" fill="#FFFFFF"></path>
                        <path d="M37.0726304,31.3578255 C36.9908632,31.3005607 36.9109829,31.2464424 36.8304736,31.1910654 C36.9109829,31.2464424 36.9908632,31.3005607 37.0726304,31.3578255" id="Fill-90" fill="#FFFFFF"></path>
                        <path d="M38.3066865,32.2753209 C38.2362409,32.2199439 38.1676822,32.168972 38.0978656,32.1148536 C38.1676822,32.168972 38.2362409,32.2199439 38.3066865,32.2753209" id="Fill-91" fill="#FFFFFF"></path>
                        <path d="M42.708908,36.195757 C42.6139323,36.1026231 42.5189565,36.0082305 42.4246097,35.9169844 C42.5189565,36.0082305 42.6139323,36.1026231 42.708908,36.195757" id="Fill-92" fill="#FFFFFF"></path>
                        <path d="M41.9667132,35.476486 C41.8773983,35.3915327 41.7880833,35.3053209 41.6993973,35.2216262 C41.7880833,35.3053209 41.8773983,35.3915327 41.9667132,35.476486" id="Fill-93" fill="#FFFFFF"></path>
                        <path d="M41.2326952,34.786162 C41.1515569,34.7112773 41.0697897,34.6345047 40.9892804,34.5608785 C41.0697897,34.6345047 41.1515569,34.7112773 41.2326952,34.786162" id="Fill-94" fill="#FFFFFF"></path>
                        <path d="M40.4867265,34.1084237 C40.4231996,34.0517882 40.3590438,33.9926355 40.296146,33.9366293 C40.3590438,33.9926355 40.4231996,34.0517882 40.4867265,34.1084237" id="Fill-95" fill="#FFFFFF"></path>
                        <path d="M39.6199939,33.3488785 L39.6193649,33.3488785 L39.6199939,33.3488785" id="Fill-96" fill="#FFFFFF"></path>
                        <path d="M44.2278915,37.727433 C44.124739,37.6204548 44.0215865,37.5141059 43.919063,37.4090156 C44.0215865,37.5141059 44.124739,37.6204548 44.2278915,37.727433" id="Fill-97" fill="#FFFFFF"></path>
                        <path d="M106.934547,169.090361 C107.013798,169.130636 107.093049,169.169651 107.170414,169.207408 C107.093049,169.169651 107.013798,169.130636 106.934547,169.090361" id="Fill-98" fill="#FFFFFF"></path>
                        <path d="M106.398657,168.803408 C106.481053,168.849346 106.561562,168.893396 106.6427,168.936816 C106.561562,168.893396 106.481053,168.849346 106.398657,168.803408" id="Fill-99" fill="#FFFFFF"></path>
                        <path d="M102.037319,165.634336 L102.141729,165.724953 L102.037319,165.634336" id="Fill-100" fill="#FFFFFF"></path>
                        <path d="M107.452196,169.338299 C107.528302,169.37228 107.604409,169.405632 107.679257,169.437097 C107.604409,169.405632 107.528302,169.37228 107.452196,169.338299" id="Fill-101" fill="#FFFFFF"></path>
                        <path d="M108.429629,169.713352 C108.498188,169.735377 108.566746,169.757402 108.634676,169.77628 C108.566746,169.757402 108.498188,169.735377 108.429629,169.713352" id="Fill-102" fill="#FFFFFF"></path>
                        <path d="M107.950347,169.545963 C108.02268,169.57428 108.095641,169.601969 108.167345,169.62714 C108.095641,169.601969 108.02268,169.57428 107.950347,169.545963" id="Fill-103" fill="#FFFFFF"></path>
                        <path d="M104.680287,167.709713 C104.766457,167.770125 104.85074,167.82676 104.935652,167.885283 C104.85074,167.82676 104.766457,167.770125 104.680287,167.709713" id="Fill-104" fill="#FFFFFF"></path>
                        <path d="M102.804044,166.278093 L102.968207,166.409614 L102.804044,166.278093" id="Fill-105" fill="#FFFFFF"></path>
                        <path d="M103.44686,166.792218 C103.524224,166.853259 103.599702,166.909265 103.677066,166.968417 C103.599702,166.909265 103.524224,166.853259 103.44686,166.792218" id="Fill-106" fill="#FFFFFF"></path>
                        <path d="M32.42951,29.1458941 C32.3691281,29.1370841 32.3074882,29.125757 32.2483642,29.1200935 C32.3074882,29.125757 32.3691281,29.1370841 32.42951,29.1458941" id="Fill-107" fill="#FFFFFF"></path>
                        <path d="M108.889412,169.839838 C108.953568,169.854941 109.018353,169.871302 109.081251,169.883888 C109.018353,169.871302 108.953568,169.854941 108.889412,169.839838" id="Fill-108" fill="#FFFFFF"></path>
                        <path d="M105.270898,168.112455 C105.357068,168.16909 105.441351,168.22195 105.525634,168.276069 C105.441351,168.22195 105.357068,168.16909 105.270898,168.112455" id="Fill-109" fill="#FFFFFF"></path>
                        <path d="M105.843898,168.47681 C105.928181,168.528411 106.011206,168.577495 106.094231,168.626579 C106.011206,168.577495 105.928181,168.528411 105.843898,168.47681" id="Fill-110" fill="#FFFFFF"></path>
                        <path d="M113.076523,164.416044 C113.063315,163.764106 113.012996,163.057421 112.928713,162.30228 C113.012996,163.057421 113.063315,163.764106 113.076523,164.416044" id="Fill-111" fill="#FFFFFF"></path>
                        <path d="M109.911503,169.973875 L109.756145,169.966324 L109.911503,169.973875" id="Fill-112" fill="#FFFFFF"></path>
                        <path d="M112.923052,166.807321 C112.682782,168.182935 112.161359,169.13567 111.343058,169.617701 L111.338655,169.620218 C112.160101,169.139445 112.682153,168.185452 112.923052,166.807321" id="Fill-113" fill="#FFFFFF"></path>
                        <path d="M98.6037244,162.435059 C98.4936532,162.324935 98.3823239,162.212922 98.2709947,162.10028 C98.3823239,162.212922 98.4936532,162.324935 98.6037244,162.435059" id="Fill-114" fill="#FFFFFF"></path>
                        <path d="M110.895225,169.818442 L111.008441,169.781944 L110.895225,169.818442" id="Fill-115" fill="#FFFFFF"></path>
                        <path d="M110.520354,169.91724 L110.665648,169.89081 L110.520354,169.91724" id="Fill-116" fill="#FFFFFF"></path>
                        <path d="M110.133532,169.963807 L110.300211,169.954368 L110.133532,169.963807" id="Fill-117" fill="#FFFFFF"></path>
                        <path d="M112.923052,166.807321 C112.984063,166.461215 113.026834,166.088679 113.051993,165.689713 C113.026834,166.088679 112.984063,166.461215 112.923052,166.807321" id="Fill-118" fill="#FFFFFF"></path>
                        <path d="M109.330326,169.924162 C109.38945,169.932972 109.449203,169.94367 109.507069,169.949963 C109.449203,169.94367 109.38945,169.932972 109.330326,169.924162" id="Fill-119" fill="#FFFFFF"></path>
                        <path d="M111.316012,169.633433 L111.314754,169.634062 L111.316641,169.633433 L111.316012,169.633433" id="Fill-120" fill="#FFFFFF"></path>
                        <path d="M104.071436,167.269215 C104.156348,167.332143 104.239373,167.391296 104.323656,167.452336 C104.239373,167.391296 104.156348,167.332143 104.071436,167.269215" id="Fill-121" fill="#FFFFFF"></path>
                        <path d="M86.127933,147.891059 C86.2562446,148.058449 86.3851852,148.225838 86.5128679,148.39134 C86.3851852,148.225838 86.2562446,148.058449 86.127933,147.891059" id="Fill-122" fill="#FFFFFF"></path>
                        <path d="M43.1655465,36.6469533 C43.2636672,36.7451215 43.3636748,36.8458069 43.4624245,36.9458629 C43.3636748,36.8458069 43.2636672,36.7451215 43.1655465,36.6469533" id="Fill-123" fill="#FFFFFF"></path>
                        <path d="M28.6795393,33.9976698 C28.7235678,31.6636573 29.2902776,30.1005171 30.4281,29.4422866 L30.4293579,29.4416573 C29.2902776,30.0992586 28.7235678,31.6623988 28.6795393,33.9976698" id="Fill-124" fill="#FFFFFF"></path>
                        <path d="M31.8439309,29.0955514 L32.0068364,29.1037321 L31.8439309,29.0955514" id="Fill-125" fill="#FFFFFF"></path>
                        <path d="M88.0073212,150.303732 C88.1117316,150.435882 88.2167711,150.569919 88.3211815,150.701439 C88.2167711,150.569919 88.1117316,150.435882 88.0073212,150.303732" id="Fill-126" fill="#FFFFFF"></path>
                        <path d="M88.984125,151.531464 C89.0602314,151.626486 89.1375958,151.723396 89.2137022,151.817788 C89.1375958,151.723396 89.0602314,151.626486 88.984125,151.531464" id="Fill-127" fill="#FFFFFF"></path>
                        <path d="M87.0651112,149.10243 C87.1839881,149.255346 87.3034941,149.408891 87.421742,149.560548 C87.3034941,149.40952 87.1839881,149.255346 87.0651112,149.10243" id="Fill-128" fill="#FFFFFF"></path>
                        <path d="M31.2495461,29.1502991 L31.0897855,29.1792461 L31.2495461,29.1502991" id="Fill-129" fill="#FFFFFF"></path>
                        <path d="M31.6332231,29.1049907 C31.5734701,29.1087664 31.5124592,29.1087664 31.4552221,29.1150592 C31.5124592,29.1087664 31.5734701,29.1087664 31.6332231,29.1049907" id="Fill-130" fill="#FFFFFF"></path>
                        <path d="M30.4350187,29.4385109 L30.4551461,29.4290717 L30.4293579,29.4416573 L30.4350187,29.4385109" id="Fill-131" fill="#FFFFFF"></path>
                        <path d="M28.6814263,34.6798131 C28.6952638,35.3223115 28.7443241,36.0164112 28.8273493,36.7583364 C28.7443241,36.0164112 28.6952638,35.3223115 28.6814263,34.6798131" id="Fill-132" fill="#FFFFFF"></path>
                        <path d="M30.8753038,29.2465794 L30.7476211,29.2874829 L30.8753038,29.2465794" id="Fill-133" fill="#FFFFFF"></path>
                        <path d="M99.763561,163.567769 C99.8635686,163.663421 99.9642052,163.76033 100.063584,163.854093 C99.9642052,163.76033 99.8635686,163.663421 99.763561,163.567769" id="Fill-134" fill="#FFFFFF"></path>
                        <path d="M96.7356578,160.512598 C96.8513899,160.635308 96.967122,160.757389 97.082854,160.878212 C96.967122,160.757389 96.8513899,160.635308 96.7356578,160.512598" id="Fill-135" fill="#FFFFFF"></path>
                        <path d="M95.9481766,159.669988 C96.0651666,159.797103 96.1821566,159.92296 96.2991467,160.047558 C96.1821566,159.92296 96.0651666,159.797103 95.9481766,159.669988" id="Fill-136" fill="#FFFFFF"></path>
                        <path d="M95.1493737,158.797801 C95.2676217,158.928062 95.3846117,159.055807 95.5016017,159.184181 C95.3846117,159.056436 95.2676217,158.928062 95.1493737,158.797801" id="Fill-137" fill="#FFFFFF"></path>
                        <path d="M99.0213662,162.847869 C99.1282926,162.95296 99.235848,163.059308 99.3421453,163.162511 C99.235848,163.059308 99.1282926,162.95296 99.0213662,162.847869" id="Fill-138" fill="#FFFFFF"></path>
                        <path d="M101.22971,164.925134 C101.307704,164.995614 101.387584,165.067981 101.464948,165.137202 C101.387584,165.067981 101.307704,164.995614 101.22971,164.925134" id="Fill-139" fill="#FFFFFF"></path>
                        <path d="M100.495692,164.256835 C100.588152,164.342417 100.681241,164.429888 100.773072,164.513583 C100.681241,164.429888 100.588152,164.342417 100.495692,164.256835" id="Fill-140" fill="#FFFFFF"></path>
                        <path d="M93.5127713,156.956517 C93.6303903,157.091184 93.7467513,157.223333 93.8631124,157.356112 C93.7467513,157.223333 93.6297613,157.091184 93.5127713,156.956517" id="Fill-141" fill="#FFFFFF"></path>
                        <path d="M94.3342174,157.889745 C94.4537233,158.023782 94.5726003,158.155931 94.6908483,158.28871 C94.5726003,158.155931 94.4537233,158.023782 94.3342174,157.889745" id="Fill-142" fill="#FFFFFF"></path>
                        <path d="M90.9704396,153.967421 C91.0578676,154.07314 91.1446666,154.175713 91.2320947,154.280804 C91.1446666,154.175713 91.0578676,154.07314 90.9704396,153.967421" id="Fill-143" fill="#FFFFFF"></path>
                        <path d="M91.8271085,154.991265 C91.9371797,155.122156 92.046622,155.2499 92.1560643,155.378903 C92.046622,155.2499 91.9371797,155.122156 91.8271085,154.991265" id="Fill-144" fill="#FFFFFF"></path>
                        <path d="M90.0999331,152.910854 L90.1162866,152.930361 L90.0999331,152.910854" id="Fill-145" fill="#FFFFFF"></path>
                        <path d="M92.6737137,155.986791 C92.7900748,156.122717 92.9051779,156.254866 93.020281,156.388903 C92.9051779,156.254866 92.7900748,156.122717 92.6737137,155.986791" id="Fill-146" fill="#FFFFFF"></path>
                        <path d="M97.5093016,161.321857 C97.6231467,161.440162 97.7376208,161.557838 97.850837,161.673626 C97.7376208,161.557838 97.6231467,161.440162 97.5093016,161.321857" id="Fill-147" fill="#FFFFFF"></path>
                        <path d="M11.5335814,45.6274579 C11.4606199,43.4438442 9.63217899,41.7321931 7.44962309,41.80519 C5.26643821,41.8775576 3.55687424,43.7062555 3.62920679,45.8898692 C3.70153933,48.0741121 5.5287223,49.785134 7.71190718,49.7127664 C9.89446308,49.6403988 11.605914,47.8117009 11.5335814,45.6274579" id="Fill-148" fill="#3E466E"></path>
                        <path d="M4.34938734,38.6480748 C4.31290658,37.5581558 3.40025856,36.7042181 2.31149652,36.7400872 C1.22147653,36.7759564 0.367952508,37.6890467 0.40443327,38.7789657 C0.440285052,39.8688847 1.35230409,40.7228224 2.44232408,40.686324 C3.53108612,40.6498255 4.38523912,39.7379938 4.34938734,38.6480748" id="Fill-149" fill="#3E466E"></path>
                        <path d="M52.3593274,23.6037944 C53.4493474,23.567296 54.3035004,22.6542056 54.2670196,21.5636573 C54.2311679,20.4749969 53.3185198,19.6204299 52.2284998,19.6569283 C51.1391088,19.6927975 50.2849558,20.6058879 50.3214366,21.6951776 C50.3572884,22.7857259 51.2699364,23.6402928 52.3593274,23.6037944" id="Fill-150" fill="#3E466E"></path>
                        <path d="M78.3864638,170.969402 C77.2958148,171.005271 76.4429198,171.918361 76.4787716,173.00828 C76.5152523,174.098199 77.4266424,174.951508 78.5172913,174.915639 C79.6047954,174.87914 80.4595774,173.966679 80.4237256,172.877389 C80.3872449,171.78747 79.4739679,170.932903 78.3864638,170.969402" id="Fill-151" fill="#3E466E"></path>
                        <path d="M133.428385,167.753763 C131.248345,167.826131 129.535636,169.654829 129.607969,171.838442 C129.680301,174.023944 131.510629,175.734966 133.690669,175.662598 C135.875741,175.590231 137.585305,173.761533 137.512343,171.576031 C137.440011,169.392417 135.613457,167.681396 133.428385,167.753763" id="Fill-152" fill="#3E466E"></path>
                        <path d="M129.538781,164.666498 C130.628172,164.630629 131.482325,163.71691 131.446473,162.626991 C131.410622,161.537072 130.496716,160.683134 129.407954,160.719632 C128.318563,160.755502 127.465668,161.668592 127.501519,162.757882 C127.538,163.847801 128.44939,164.702997 129.538781,164.666498" id="Fill-153" fill="#3E466E"></path>
                        <path d="M103.187721,104.347788 L69.8216616,123.620854 C69.2876587,123.929202 68.629747,123.929202 68.0957442,123.620854 L59.9573895,118.920106 C58.8069875,118.255583 58.8069875,116.593645 59.9573895,115.929121 L104.913638,89.961109 C105.447641,89.6527601 105.776597,89.0826293 105.776597,88.4653022 L105.776597,80.5029782 C105.776597,79.8862804 105.447641,79.3161495 104.913638,79.0078006 L69.8222905,58.7373209 C69.2882877,58.428972 68.629747,58.428972 68.0963731,58.7373209 L33.0043965,79.0078006 C32.4703936,79.3161495 32.1414378,79.8862804 32.1414378,80.5029782 L32.1414378,95.7033209 C32.1414378,97.0323676 33.579283,97.8630218 34.7303139,97.1984984 L68.0963731,77.925433 C68.629747,77.6170841 69.2882877,77.6170841 69.8222905,77.925433 L77.9606452,82.6261807 C79.1110472,83.2913333 79.1110472,84.9526417 77.9606452,85.6171651 L33.0043965,111.585178 C32.4703936,111.894156 32.1414378,112.463657 32.1414378,113.080984 L32.1414378,121.043308 C32.1414378,121.660006 32.4703936,122.230137 33.0043965,122.538486 L68.0963731,142.808966 C68.629747,143.117315 69.2882877,143.117315 69.8222905,142.808966 L104.913638,122.538486 C105.447641,122.230137 105.776597,121.660006 105.776597,121.043308 L105.776597,105.843595 C105.776597,104.513919 104.338123,103.683265 103.187721,104.347788" id="Fill-154" fill="#FFFFFF"></path>
                    </g>
                </g>
            </g>
        </g>
    </g>
</svg>
