<svg viewBox="0 0 138 202" xmlns="http://www.w3.org/2000/svg"><title>Imported Layers</title><g fill="none" fill-rule="evenodd"><path d="M94.886 59.822l9.275 5.357 5.66-9.8-9.273-5.36-5.652 9.792m2.364-11.69l-9.276-5.36-5.65 9.793 9.273 5.36 5.653-9.794M43 142.133l-9.274-5.355-12.34 21.382 9.276 5.35L43 142.13m-9.05 23.28l9.275 5.36 12.34-21.38-9.276-5.357-12.34 21.382" fill="#FCC65A"/><path d="M12.913 172.845a5.794 5.794 0 0 0 2.116 7.904l11.82 6.82a5.79 5.79 0 0 0 7.9-2.12l5.57-9.658-21.84-12.616-5.577 9.66" fill="#EE6E30"/><path d="M113.842 32.855l-8.336-4.815L92.12 38.462l19.422 11.22 2.3-16.827" fill="#FFF"/><path d="M105.506 28.04L92.12 38.462l19.422 11.22 2.3-16.827-8.336-4.815" fill="#FDE2AC"/><path d="M5.06 34.188a1.9 1.9 0 0 0 1.89-2.1C5.49 18.25 7.817 8.818 13.51 5.53c7.338-4.237 19.633.767 32.084 13.063a1.9 1.9 0 1 0 2.668-2.705C34.33 2.132 20.63-2.97 11.61 2.24 4.438 6.38 1.518 16.84 3.174 32.488a1.9 1.9 0 0 0 1.885 1.7m127.47 145.125a1.907 1.907 0 0 0-2.03 1.764c-.55 7.83-2.86 12.974-6.87 15.29-8.52 4.923-24.176-2.856-38.96-19.352a1.898 1.898 0 1 0-2.83 2.538c12.673 14.14 25.88 22.053 35.956 22.053 2.855 0 5.46-.636 7.73-1.946 5.173-2.99 8.12-9.153 8.76-18.32a1.9 1.9 0 0 0-1.764-2.027" fill="#3E466E"/><path d="M81.595 160.41l.052-.028a2.866 2.866 0 0 1 3.558.645c2.785 3.268 5.542 6.317 8.247 9.1 15.358 15.805 22.924 16.988 24.364 16.157 1.44-.832 4.2-7.98-1.802-29.188-1.99-7.028-4.672-14.664-7.947-22.69l-3.37 1.947.478 1.152a207.126 207.126 0 0 1 1.666 4.177c.7 1.81 1.35 3.554 1.94 5.226 2.214 6.315 3.6 11.61 4.04 15.543.086.76.137 1.47.15 2.12.01.45 0 .878-.025 1.277-.025.398-.07.77-.13 1.117-.24 1.378-.762 2.33-1.583 2.813l-.013.006-.01.005-.003.004a2.52 2.52 0 0 1-.305.148l-.116.037c-.074.025-.15.052-.23.072l-.143.025c-.07.014-.142.03-.22.038l-.164.01c-.07.004-.133.01-.2.01h-.024l-.155-.007a4.276 4.276 0 0 1-.247-.018l-.177-.027c-.08-.01-.163-.022-.25-.04l-.19-.043a4.8 4.8 0 0 1-.254-.064c-.07-.02-.138-.04-.206-.064a7.067 7.067 0 0 1-.75-.275 11.323 11.323 0 0 1-1.036-.5 16.055 16.055 0 0 1-.55-.31l-.25-.15-.32-.2-.253-.167a24.93 24.93 0 0 1-.335-.226l-.254-.177c-.12-.084-.24-.17-.358-.26a13.37 13.37 0 0 1-.253-.18l-.397-.3c-.078-.06-.154-.117-.23-.178a41.028 41.028 0 0 1-.48-.384l-.164-.13a41.15 41.15 0 0 1-.663-.555l-.102-.09a47.03 47.03 0 0 1-.57-.496l-.235-.213a50.87 50.87 0 0 1-.458-.41c-.093-.084-.186-.17-.278-.257a60.08 60.08 0 0 1-.43-.402l-.3-.285-.425-.407-.32-.313a84.908 84.908 0 0 1-1.17-1.176 61.537 61.537 0 0 1-.77-.794c-.116-.12-.23-.242-.347-.365l-.436-.463a69.392 69.392 0 0 1-.8-.863l-.35-.386a81.193 81.193 0 0 1-.46-.51l-.357-.4-.473-.533-.35-.4a71.357 71.357 0 0 1-.49-.565l-.347-.4-.52-.61c-.108-.13-.218-.255-.328-.386-.198-.234-.396-.473-.596-.71l-.26-.315a96.71 96.71 0 0 1-.856-1.04l-.017-.02c-.293-.36-.59-.722-.885-1.09l-.23-.287-.663-.83-.31-.4a221.232 221.232 0 0 1-1.88-2.415l-.476-.62-12.813 7.404a261.58 261.58 0 0 0 8.06 9.964c-1.17-1.387-.782-3.506.81-4.377M28.71 36.906a23.3 23.3 0 0 1-.145-2.08 15.47 15.47 0 0 1-.002-.68c.044-2.336.61-3.9 1.75-4.557l.025-.016c.095-.053.192-.1.293-.142l.13-.04c.08-.025.14-.05.22-.068l.16-.03c.07-.01.137-.026.207-.034.06-.005.12-.005.18-.01.062-.002.124-.01.19-.01h.02l.163.01c.08.004.16.006.24.016.06.006.12.017.18.026.08.012.16.023.244.04.064.012.13.03.195.045a5.247 5.247 0 0 1 .454.125c.087.027.174.054.262.086l.215.08a10.22 10.22 0 0 1 1.315.61l.238.13a16.333 16.333 0 0 1 .884.535c.08.05.16.106.243.16.117.076.234.156.35.236.08.05.16.105.24.163.126.087.25.18.377.27.078.057.155.11.235.17.14.1.278.21.418.318l.21.16c.17.13.34.27.51.41l.128.104a50.98 50.98 0 0 1 1.348 1.148c.062.058.126.118.19.174l.503.454.242.225c.155.144.31.288.467.436l.265.256c.152.146.304.29.458.44l.286.28a100.623 100.623 0 0 1 .75.75 107.876 107.876 0 0 1 .763.78l.462.482.313.33c.155.164.31.332.47.5l.32.344.48.526.32.35.5.552.313.35.515.583.31.355c.18.207.36.416.54.627l.293.34c.198.23.397.467.596.7l.25.3c.23.27.46.544.69.82l.17.208a198.18 198.18 0 0 1 1.776 2.17l.123.156.77.963.248.31c.22.276.438.552.657.832.102.13.205.265.31.397.2.256.4.513.6.774l.34.443.576.75.07.09 3.37-1.948c-5.36-6.923-10.676-13.123-15.81-18.41-15.356-15.81-22.92-16.99-24.358-16.16-1.44.832-4.2 7.98 1.802 29.188a186.61 186.61 0 0 0 3.443 10.8 2.876 2.876 0 0 1-1.268 3.447l-.058.035a2.873 2.873 0 0 1-4.144-1.54c-.532-1.522-1.04-3.02-1.517-4.49 1.795 5.517 3.977 11.405 6.52 17.568l12.813-7.402c-4.65-11.128-7.535-20.31-8.203-26.314" fill="#9FD9DF"/><path d="M31.525 13.81c-6.315-4.005-11.54-5.28-15.1-3.224 3.56-2.055 8.785-.78 15.1 3.225m72.637 173.32" fill="#69C4C6"/><path d="M80.883 164.903c.482.564.962 1.12 1.44 1.67l.108.125c1.57 1.8 3.12 3.518 4.65 5.15l.13.14a204.794 204.794 0 0 0 1.56 1.642c.45.465.9.922 1.34 1.37l.14.14a136.044 136.044 0 0 0 4.36 4.225l.207.19a109.135 109.135 0 0 0 2.808 2.5c.92.79 1.827 1.54 2.718 2.243l.07.055c.405.318.804.627 1.2.927l.276.207a67.085 67.085 0 0 0 2.28 1.637c.086.058.17.117.255.173.82.554 1.625 1.064 2.41 1.53l.193.11a32.81 32.81 0 0 0 1.26.705 35.453 35.453 0 0 0 1.14.585c.27.132.538.256.8.375.097.042.19.087.285.127.35.15.695.29 1.035.42l.01.002c.35.133.692.252 1.03.363.084.027.165.05.25.075.245.076.49.148.73.21a17.1 17.1 0 0 0 1.284.284c.215.04.427.07.636.093.094.01.187.025.278.034.286.03.567.05.84.057h.033a9.67 9.67 0 0 0 .835-.02c.082-.007.162-.018.244-.026.19-.015.38-.04.56-.07a8.28 8.28 0 0 0 .777-.165c.093-.024.185-.05.275-.08.167-.05.33-.11.49-.174.077-.03.155-.056.23-.09.23-.1.455-.21.67-.335l.01-.003c5.912-3.415 6.17-15.42 1.81-32.346a162.7 162.7 0 0 0-1.986-7.027 190.19 190.19 0 0 0-1.174-3.696 211.882 211.882 0 0 0-1.98-5.75 264.567 264.567 0 0 0-4.26-11.012l3.02-1.743a2.592 2.592 0 0 0 1.293-2.245V74.34a2.59 2.59 0 0 0-1.293-2.242l-6.96-4.02 7.464-12.937 5.584-40.84c.187-1.356-.5-2.482-1.5-3.06-1-.578-2.32-.606-3.4.235l-32.7 25.45-7.35 12.74-7.16-4.135a2.586 2.586 0 0 0-2.586 0l-2.993 1.728C52.41 31.47 40.79 19.693 31.52 13.81c-6.315-4.005-11.54-5.28-15.1-3.224a6.89 6.89 0 0 0-.628.416c-.064.047-.123.098-.185.147a7.08 7.08 0 0 0-.4.33c-.07.062-.136.13-.2.194a7.94 7.94 0 0 0-.86 1.012c-.054.07-.107.14-.156.214-.13.19-.25.393-.37.6l-.06.104c-.136.25-.266.51-.39.78-.03.068-.055.14-.084.207-.09.208-.176.42-.258.638a14.882 14.882 0 0 0-.396 1.238c-.06.22-.116.446-.17.677-.023.103-.05.205-.072.31-.06.28-.117.565-.167.857-.01.06-.022.12-.03.18-.06.37-.11.745-.16 1.134l-.01.1c-.036.347-.07.7-.096 1.064-.007.104-.012.21-.02.32a35.034 35.034 0 0 0-.07 2.25c0 .113-.002.23 0 .344.004.377.01.76.024 1.148l.006.2c.037.946.1 1.93.195 2.952l.02.215c.043.432.09.87.14 1.316l.04.33c.05.423.108.855.168 1.292l.044.313c.07.486.145.978.226 1.476l.026.155c.28 1.713.63 3.505 1.038 5.37a119.104 119.104 0 0 0 .93 3.92l.024.094a156.423 156.423 0 0 0 1.706 6.166l.012.045c.2.677.41 1.362.626 2.052l.05.158c.215.686.435 1.376.66 2.073l.023.067c.48 1.472.985 2.97 1.52 4.494a2.87 2.87 0 0 0 4.14 1.534l.06-.035a2.876 2.876 0 0 0 1.268-3.447 186.61 186.61 0 0 1-3.44-10.804c-6-21.21-3.24-28.355-1.8-29.187 1.44-.833 9.004.35 24.363 16.154 5.132 5.286 10.45 11.49 15.802 18.41l-3.37 1.95-.07-.09-.576-.753-.34-.44c-.2-.26-.4-.516-.6-.772l-.31-.397-.656-.83a10.91 10.91 0 0 0-.25-.31 214.57 214.57 0 0 0-.77-.963l-.12-.155a198.18 198.18 0 0 0-1.772-2.17c-.058-.07-.116-.137-.174-.21-.23-.273-.46-.55-.688-.817l-.252-.295c-.2-.235-.398-.47-.596-.7l-.292-.338-.543-.628-.31-.36-.517-.584-.313-.35a56.83 56.83 0 0 0-.5-.556l-.32-.35-.48-.524-.32-.343c-.16-.168-.313-.336-.47-.5l-.313-.33a86.71 86.71 0 0 0-1.98-2.013l-.286-.28a31 31 0 0 0-.456-.44 44.326 44.326 0 0 0-.734-.69l-.243-.23a50.92 50.92 0 0 0-.503-.455c-.064-.056-.128-.116-.19-.17a50.98 50.98 0 0 0-.677-.59 36.7 36.7 0 0 0-.67-.56l-.13-.1c-.175-.14-.347-.28-.517-.41-.07-.056-.14-.107-.21-.16-.14-.11-.28-.217-.416-.318-.08-.06-.158-.114-.236-.17-.122-.092-.25-.184-.37-.27l-.242-.167c-.117-.08-.234-.16-.35-.236a9.11 9.11 0 0 0-.243-.158 15.364 15.364 0 0 0-.882-.533c-.08-.044-.16-.09-.24-.13a12.44 12.44 0 0 0-1.04-.5 10.22 10.22 0 0 0-.27-.11 3.485 3.485 0 0 0-.215-.08 6.675 6.675 0 0 0-.26-.087 5.247 5.247 0 0 0-.46-.126c-.064-.016-.13-.033-.195-.045a2.75 2.75 0 0 0-.245-.04c-.06-.01-.12-.02-.18-.027-.083-.01-.162-.012-.242-.016l-.16-.01h-.02c-.065 0-.127.01-.19.01-.06.007-.12.007-.18.01-.07.01-.135.026-.203.038l-.16.03c-.072.017-.14.042-.212.066l-.127.04c-.1.043-.197.09-.292.144l-.02.01-.004.002c-1.137.656-1.704 2.22-1.748 4.553-.003.22-.002.45.004.682a23.3 23.3 0 0 0 .146 2.078c.67 6.003 3.554 15.186 8.203 26.315l-15.37 8.88a2.59 2.59 0 0 0-1.297 2.242v53.152c0 .924.493 1.78 1.294 2.242l7.16 4.135L7.89 169.94c-3.2 5.544-1.3 12.634 4.24 15.834l11.822 6.83c5.54 3.2 12.627 1.3 15.826-4.244l20.813-36.067 6.96 4.02a2.58 2.58 0 0 0 2.59 0l15.4-8.895.474.62a203.43 203.43 0 0 0 .938 1.21l.357.458c.195.25.39.497.585.744l.31.397.664.83.23.286c.295.368.59.733.884 1.093l.02.018c.284.35.57.696.85 1.037l.26.32.598.71.33.39a116.06 116.06 0 0 0 .86 1.01l.494.568.35.4.47.533.36.4a139.158 139.158 0 0 0 1.257 1.38l.35.377.44.465a65.218 65.218 0 0 0 .774.81 61.537 61.537 0 0 0 .76.78 84.124 84.124 0 0 0 .754.747l.32.315.423.407.3.286c.14.136.285.27.43.402a32.828 32.828 0 0 0 .733.67l.235.21c.193.17.384.336.573.5l.104.09c.226.19.446.374.664.552l.164.13a20.163 20.163 0 0 0 .71.56c.13.102.265.204.395.3.083.064.166.123.25.184l.356.26.258.174.336.226c.086.055.17.11.255.162.107.068.213.136.32.2.08.052.165.1.25.15a16.225 16.225 0 0 0 .547.31 12.004 12.004 0 0 0 1.036.5 8.407 8.407 0 0 0 .75.277 4.807 4.807 0 0 0 .46.127l.19.044c.088.017.17.028.25.04.06.01.12.02.18.026.084.01.166.012.25.016l.154.01h.022c.067 0 .13-.006.2-.01l.164-.01c.075-.01.15-.023.22-.036l.145-.026c.08-.02.154-.048.23-.074l.113-.036a2.36 2.36 0 0 0 .307-.148l.01-.007.01-.01h.004c.82-.484 1.34-1.436 1.58-2.81.06-.35.104-.72.13-1.12.024-.4.033-.823.024-1.273a23.47 23.47 0 0 0-.15-2.112c-.44-3.932-1.83-9.227-4.04-15.542a175.596 175.596 0 0 0-1.93-5.225 207.126 207.126 0 0 0-1.67-4.178l-.475-1.15 3.37-1.947c3.276 8.024 5.96 15.66 7.948 22.69 6 21.206 3.24 28.354 1.802 29.186-1.44.83-9.007-.35-24.365-16.158-2.72-2.798-5.49-5.865-8.293-9.152a2.758 2.758 0 0 0-3.42-.64 3.005 3.005 0 0 0-.956 4.454l.01.01.09.106zM104.16 65.18l-9.274-5.358 5.652-9.793 9.274 5.35-5.65 9.79zm1.346-37.14l8.336 4.815-2.3 16.826L92.12 38.47l13.386-10.423zM87.974 42.77l9.275 5.36-5.66 9.792-9.276-5.358 5.65-9.793zM38.27 56.42c-2.98-7.693-4.502-13.01-5.248-16.64 4.123 3.972 9.122 9.872 14.628 17.24l-7.415 4.285c-.692-1.667-1.35-3.3-1.966-4.885zm-4.544 80.358L43 142.135l-12.338 21.382-9.275-5.357 12.34-21.382zm1.025 48.68a5.79 5.79 0 0 1-7.9 2.12l-11.82-6.83a5.794 5.794 0 0 1-2.11-7.903l5.575-9.658 21.838 12.615-5.572 9.657zm8.48-14.684l-9.27-5.357 12.34-21.382 9.274 5.357-12.34 21.382zm45.637-25.27l7.46-4.31c3.66 8.474 6.315 15.796 7.758 21.43-2.79-2.433-6.73-6.464-12.11-13.155a221.07 221.07 0 0 1-3.107-3.97zm-20.013-2.05L32.03 122.19v-9.957l48.41-27.96-11.59-6.695-36.82 21.267v-19.19l36.82-21.268 36.815 21.267v9.957l-48.408 27.97 11.59 6.697L105.662 103v19.188l-36.817 21.267z" fill="#3E466E"/><path d="M33.69 29.67c-.07-.026-.144-.055-.215-.08l.216.08m-.93-.29a2.627 2.627 0 0 0-.193-.046c.064.012.13.03.195.045m21.78 20.68l-.31-.4.31.397m-6.42-7.817l-.312-.356.312.354m-.83-.94l-.318-.35.314.35m2.51 2.903l-.25-.296c.082.1.166.196.25.297m-3.316-3.8l-.32-.35.32.35m6.08 7.16l-.124-.153.124.156m-1.897-2.327l-.174-.21c.05.07.11.14.17.21m4.82 6.042l-.34-.442.34.444m.64.84l-.07-.09.07.09m-2.55-3.29a19.84 19.84 0 0 0-.245-.31l.244.31m-4.62-5.624l-.294-.34.292.34m-4.065-4.53l-.316-.33.313.33m-7.324-6.74a13.51 13.51 0 0 0-.232-.17c.078.056.155.11.235.17m1.27.992l-.13-.103.13.103m-1.877-1.43c-.082-.06-.162-.11-.242-.166.08.053.16.107.243.165m1.234.916c-.07-.055-.14-.106-.21-.16.07.054.14.105.21.16m4.403 3.92l-.283-.28.285.28m-.742-.72c-.09-.084-.18-.17-.266-.254l.268.25m-.734-.69l-.242-.224c.08.07.163.15.244.224m-.746-.675l-.19-.174c.062.058.126.118.19.174m61.55 131.525l.105.09-.106-.09m6.392 4.08c.068.023.137.045.205.064-.066-.02-.135-.04-.203-.063m-3.75-2l.255.174-.253-.175m-1.878-1.43l.164.13-.165-.13m.643.512l.23.177c-.077-.06-.153-.117-.23-.178M32.313 29.29c-.06-.01-.12-.02-.18-.025.06.006.12.017.18.026m76.46 140.698l.19.044-.19-.04m-3.62-1.73c.09.057.17.11.258.164-.08-.054-.16-.107-.25-.164m.578.36l.25.15-.25-.15m4.068 1.498l-.155-.008.158.008m3.01-3.164c-.24 1.376-.76 2.328-1.58 2.81l-.004.003c.82-.48 1.343-1.438 1.584-2.816m-2.028 3.01l.112-.035-.115.035m-.374.1l.147-.027-.142.02m-.387.05l.168-.01-.165.01m-.803-.04l.176.028-.176-.027m-5.262-2.65l.25.182a13.37 13.37 0 0 1-.252-.185M28.57 34.145c.042-2.335.61-3.898 1.746-4.556h.002c-1.14.65-1.706 2.22-1.75 4.55m3.165-4.9l.163.01-.163-.01m56.162 121.21l.313.393-.313-.4m.977 1.23l.23.285-.23-.287m-1.92-2.43l.355.46-.357-.458M31.134 29.298l-.16.03.16-.03m.383-.045c-.06.004-.12.004-.178.01.05-.006.12-.006.17-.01m-1.197.333l.02-.01-.026.013.005-.01m.44-.19l-.128.04.127-.04m68.89 134.32l.3.284-.3-.286m-4.613-4.77l.354.386-.35-.384m3.872 4.05l.32.314-.32-.315m2.208 2.077l.237.21-.235-.21m-.735-.67c.095.085.188.173.28.256-.092-.08-.185-.17-.277-.254m-6.98-7.3l.35.4-.35-.4m.823.934l.356.4-.36-.4m-3.364-3.923l.26.315c-.087-.11-.174-.21-.26-.32m.855 1.027l.33.386-.33-.39m-1.726-2.08l.016.02-.016-.02m2.574 3.074c.115.137.23.27.346.403l-.346-.403m4.837 5.337" fill="#FFF"/><path d="M11.42 45.775a3.955 3.955 0 1 0-7.908.262 3.955 3.955 0 0 0 7.907-.262m-7.19-6.98a1.975 1.975 0 1 0-3.95.13 1.975 1.975 0 0 0 3.95-.13m48.01-15.043a1.975 1.975 0 1 0-2.04-1.91 1.974 1.974 0 0 0 2.04 1.91m81.07 144.15a3.956 3.956 0 1 0 .26 7.908 3.954 3.954 0 0 0 3.823-4.086 3.954 3.954 0 0 0-4.084-3.822m-3.89-3.088a1.975 1.975 0 1 0-.13-3.947 1.974 1.974 0 1 0 .13 3.947" fill="#3E466E"/><path d="M103.073 104.496L69.707 123.77a1.726 1.726 0 0 1-1.726 0l-8.13-4.702c-1.15-.665-1.15-2.327 0-2.99l44.958-25.97c.534-.307.863-.878.863-1.495V80.65c0-.616-.33-1.186-.863-1.494L69.71 58.886a1.726 1.726 0 0 0-1.727 0l-35.09 20.27a1.727 1.727 0 0 0-.862 1.494v15.2c0 1.33 1.44 2.16 2.59 1.496l33.36-19.273a1.726 1.726 0 0 1 1.73 0l8.14 4.7c1.15.666 1.15 2.327 0 2.992l-44.96 25.968c-.533.31-.862.878-.862 1.496v7.96c0 .61.33 1.18.863 1.49l35.093 20.27a1.726 1.726 0 0 0 1.726 0l35.09-20.27c.534-.31.863-.88.863-1.498v-15.2c0-1.33-1.44-2.16-2.59-1.495" fill="#FFF"/></g></svg>